<mxfile host="app.diagrams.net" modified="2020-10-15T10:09:27.230Z" agent="5.0 (Windows NT 10.0; Win64; x64) AppleWebKit/537.36 (KHTML, like Gecko) Chrome/86.0.4240.75 Safari/537.36" etag="WpV5N4TokujyxMAC_vVf" version="13.8.0" type="github">
  <diagram id="HL1jNP0mz-lcoWcmTGd-" name="第 1 页">
    <mxGraphModel dx="981" dy="526" grid="1" gridSize="10" guides="1" tooltips="1" connect="1" arrows="1" fold="1" page="1" pageScale="1" pageWidth="827" pageHeight="1169" math="0" shadow="0">
      <root>
        <mxCell id="0" />
        <mxCell id="1" parent="0" />
        <mxCell id="QQfPTW1r_rw5d-qssDOF-1" value="" style="rounded=0;whiteSpace=wrap;html=1;" parent="1" vertex="1">
          <mxGeometry x="130" y="50" width="130" height="220" as="geometry" />
        </mxCell>
        <mxCell id="QQfPTW1r_rw5d-qssDOF-2" value="工作区" style="text;html=1;strokeColor=none;fillColor=none;align=center;verticalAlign=middle;whiteSpace=wrap;rounded=0;" parent="1" vertex="1">
          <mxGeometry x="175" y="20" width="40" height="20" as="geometry" />
        </mxCell>
        <mxCell id="QQfPTW1r_rw5d-qssDOF-3" value="" style="rounded=0;whiteSpace=wrap;html=1;" parent="1" vertex="1">
          <mxGeometry x="330" y="50" width="360" height="220" as="geometry" />
        </mxCell>
        <mxCell id="QQfPTW1r_rw5d-qssDOF-4" value="版本库" style="text;html=1;strokeColor=none;fillColor=none;align=center;verticalAlign=middle;whiteSpace=wrap;rounded=0;" parent="1" vertex="1">
          <mxGeometry x="490" y="20" width="40" height="20" as="geometry" />
        </mxCell>
        <mxCell id="QQfPTW1r_rw5d-qssDOF-5" value="" style="rounded=0;whiteSpace=wrap;html=1;" parent="1" vertex="1">
          <mxGeometry x="380" y="100" width="90" height="140" as="geometry" />
        </mxCell>
        <mxCell id="QQfPTW1r_rw5d-qssDOF-6" value="" style="rounded=0;whiteSpace=wrap;html=1;" parent="1" vertex="1">
          <mxGeometry x="560" y="100" width="90" height="140" as="geometry" />
        </mxCell>
        <mxCell id="QQfPTW1r_rw5d-qssDOF-7" value="暂存区" style="text;html=1;strokeColor=none;fillColor=none;align=center;verticalAlign=middle;whiteSpace=wrap;rounded=0;" parent="1" vertex="1">
          <mxGeometry x="404" y="70" width="40" height="20" as="geometry" />
        </mxCell>
        <mxCell id="QQfPTW1r_rw5d-qssDOF-9" value="本地分支" style="text;html=1;strokeColor=none;fillColor=none;align=center;verticalAlign=middle;whiteSpace=wrap;rounded=0;" parent="1" vertex="1">
          <mxGeometry x="575" y="60" width="60" height="20" as="geometry" />
        </mxCell>
        <mxCell id="QQfPTW1r_rw5d-qssDOF-10" value="master" style="text;html=1;strokeColor=none;fillColor=none;align=center;verticalAlign=middle;whiteSpace=wrap;rounded=0;" parent="1" vertex="1">
          <mxGeometry x="585" y="80" width="40" height="20" as="geometry" />
        </mxCell>
        <mxCell id="QQfPTW1r_rw5d-qssDOF-12" value="" style="rounded=0;whiteSpace=wrap;html=1;" parent="1" vertex="1">
          <mxGeometry x="150" y="100" width="90" height="140" as="geometry" />
        </mxCell>
        <mxCell id="QQfPTW1r_rw5d-qssDOF-13" value="本地目录" style="text;html=1;strokeColor=none;fillColor=none;align=center;verticalAlign=middle;whiteSpace=wrap;rounded=0;" parent="1" vertex="1">
          <mxGeometry x="167" y="70" width="56" height="20" as="geometry" />
        </mxCell>
        <mxCell id="QQfPTW1r_rw5d-qssDOF-14" value="" style="endArrow=classic;html=1;entryX=0;entryY=0.25;entryDx=0;entryDy=0;exitX=1;exitY=0.25;exitDx=0;exitDy=0;" parent="1" source="QQfPTW1r_rw5d-qssDOF-12" target="QQfPTW1r_rw5d-qssDOF-5" edge="1">
          <mxGeometry width="50" height="50" relative="1" as="geometry">
            <mxPoint x="260" y="135" as="sourcePoint" />
            <mxPoint x="410" y="140" as="targetPoint" />
          </mxGeometry>
        </mxCell>
        <mxCell id="QQfPTW1r_rw5d-qssDOF-15" value="" style="endArrow=classic;html=1;exitX=1;exitY=0.25;exitDx=0;exitDy=0;" parent="1" edge="1">
          <mxGeometry width="50" height="50" relative="1" as="geometry">
            <mxPoint x="470" y="140" as="sourcePoint" />
            <mxPoint x="560" y="140" as="targetPoint" />
          </mxGeometry>
        </mxCell>
        <mxCell id="QQfPTW1r_rw5d-qssDOF-16" value="add" style="text;html=1;strokeColor=none;fillColor=none;align=center;verticalAlign=middle;whiteSpace=wrap;rounded=0;" parent="1" vertex="1">
          <mxGeometry x="270" y="110" width="56" height="20" as="geometry" />
        </mxCell>
        <mxCell id="QQfPTW1r_rw5d-qssDOF-17" value="commit" style="text;html=1;strokeColor=none;fillColor=none;align=center;verticalAlign=middle;whiteSpace=wrap;rounded=0;" parent="1" vertex="1">
          <mxGeometry x="490" y="110" width="56" height="20" as="geometry" />
        </mxCell>
        <mxCell id="QQfPTW1r_rw5d-qssDOF-19" value="" style="shape=image;imageAspect=0;aspect=fixed;verticalLabelPosition=bottom;verticalAlign=top;image=data:image/png,iVBORw0KGgoAAAANSUhEUgAAAMgAAADICAYAAACtWK6eAAALWklEQVR4Xu2dbchlVRmG7wcsCiLMkpKgRJIa/WMJGUagpNKXYIY/kiLDsswRCppIMjJIIxoqGqkEUyjCCGGaCsPU8ocFhvRFmSgTFIiVaYGS/hh4YsnWxsGZZ6919td59vXC+Xevtddz3efyeOacd78mfiAAgcMSMNhAAAKHJ4AgPDsgcAQCCMLTAwIIwnMAAm0EeAVp48aqlRBAkJUUzZhtBBCkjRurVkIAQVZSNGO2EUCQNm6sWgkBBFlJ0YzZRgBB2rixaiUEEGQlRTNmGwEEaePGqpUQQJCVFM2YbQQQpI0bq1ZCAEFWUjRjthFAkDZurFoJAQRZSdGM2UYAQdq4sWolBBBkJUUzZhsBBGnjxqqVEECQlRTNmG0EEKSNG6tWQgBBVlI0Y7YRQJA2bqxaCQEEWUnRjNlGAEHauLFqJQQQZCVFM2YbAQRp48aqlRBAkJUUzZhtBBCkjRurVkIAQVZSNGO2EVisIO5+lKSXHPR4YduIVav+LekvZvZY1SrCaQksShB3P1bSBd3jjBmpP1xEkXR797jLzA7MeB4uPROBRQji7idJulzS+yS9aCYWR7rsQ5L2SdpjZvcu8HwcaSQCswri7q+UtLN7LFGMQ7E/Luna8jCzB0fqhG0XRGA2Qdz9TZJulPS6BfHoe5QHJF1iZnf2XUBuOwnMIoi7v03ST7cT2TOnLu9JzkaSLW8xOP7kgrj7FZKuSYT1NDP7daJ5GOUgApMK4u4flHRDwgaOM7O/J5xr9SNNJoi7v1nSbZKm+Dxj6mLvkPQuM3ty6gtzvXEJTCnIrZLOGXecWXf/tpl9aNYTcPHBCUwiiLt/RNK3Bj/98jZ8p5ndsrxjcaJWAqML0n06/ktJJ7YecovW/dzM3rpF5+Woc/8rlrtf1n24tpYyLjSzm9YybPY5p3gF+ZGkcxtBlrX3SfqdpPJ1jyl+TpV0Wvd9sJbr3WBmF7csZM3yCIwqiLu/YoMn9jvMbLYPE929fGlyj6SXV9b2NzN7deUa4gslMLYgl0r6Ru3sZjbquWrO4+5/lHRyzRpJp5jZ7yvXEF8ggVGfiO5+XfnOUuXcu81sV+Wa0eLdN43vqfz8hvchozUy7cZjC1I+GDyrYqTHzOzFFflJou7+PUkXVlzsSjO7uiJPdKEExhZkv6QTKma/38xeW5GfJOrun5b0xYqL8Ua9AtaSo2ML4pXD32lmZ1auGT3u7uW3G39RcaFFzlFxfqIdAQTp8VRAkB6QkkYQpEexCNIDUtIIgvQoFkF6QEoaQZAexSJID0hJIwjSo1gE6QEpaQRBehTr7jsk1d7u52RuEdQD7sIjCNKjIHcvd3h8tEf04MifJN1cuWYt8ScklbtYPvUws3KDvkX+IEjPWtz9X5Je2jNOrI7Af7t7Fdwy5xdUn+vICNKzSHcv9/C6qGecWDuBcoeYcmO+77ZvMdxKBOnJ0t3L73hc3zNObHMCP+tE+fHmW7XvgCA92bn70d3XTU7puYTYMASuNrMrh9mqfhcEqWDm7udJ2luxhOgwBPaZWWE/+Q+CVCJ3969K+njlMuKbE/iOmX1g823qdkCQOl5Ppd39t+W3BhuWsmQzApea2aS3j0KQxsLc/RFJxzQuZ1k7gfea2ffbl9etRJA6Xs9Ku/sPNrj7yQZXXvXSP5S7zkx1m1cE2fC55u5fkvSpDbdheR2BXWa2u25JWxpB2rgd+kpSbsxdJCl/9+T5A2zJFkcm8NfuVeQfY4NCkAEJd5+VlF/PPb27VVD524vHD3gJtvo/gcvMrPqWUrUAEaSWGPlBCLj7qySVx2cb7/q/18zOH+QwR9gEQcYmzP4hge4uluUfPGp+JrlFFILUVEJ2NAKNfyLjzLH/RiSCjFY5G9cScPfyBcWzK9ZdbGaj/kk/BKlog+i4BNy93Cx8Z8VVRv8iI4JUtEF0XALuXu7jXO7n3PfnJjOruSVs332fySFINTIWjEVgiTfHQJCx2mbfagIIEiPjnrYxo7QJBImrRZCYUdoEgsTVIkjMKG0CQeJqESRmlDaBIHG1CBIzSptAkLhaBIkZpU0gSFwtgsSM0iYQJK4WQWJGaRMIEleLIDGjtAkEiatFkJhR2gSCxNUiSMwobQJB4moRJGaUNoEgcbUIEjNKm0CQuFoEiRmlTSBIXC2CxIzSJhAkrhZBYkZpEwgSV4sgMaO0CQSJq0WQmFHaBILE1SJIzChtAkHiahEkZpQ2gSBxtQgSM0qbQJC4WgSJGaVNIEhcLYLEjNImECSuFkFiRmkTCBJXiyAxo7QJBImrRZCYUdoEgsTVIkjMKG0CQeJqESRmlDaBIHG1CBIzSptAkLhaBIkZpU0gSFwtgsSM0iYQJK4WQWJGaRMIEleLIDGjtAkEiatFkJhR2gSCxNUiSMwobQJB4moRJGaUNoEgcbUIEjNKm0CQuFoEiRmlTSBIXC2CxIzSJhAkrhZBYkZpEwgSV4sgMaO0CQSJq0WQmFHaBILE1SJIzChtAkHiahEkZpQ2gSBxtQgSM0qbQJC4WgSJGaVNIEhcLYLEjNImECSuFkFiRmkTCBJXiyAxo7QJBImrRZCYUdoEgsTVIkjMKG0CQeJqESRmlDaBIHG1CBIzSptAkLhaBIkZpU0gSFwtgsSM0iYQJK4WQWJGaRMIEleLIDGjtAkEiatFkJhR2gSCxNUiSMwobQJB4moRJGaUNoEgcbUIEjNKm0CQuFoEiRmlTSBIXC2CxIzSJhAkrhZBYkZpEwgSV4sgMaO0CQSJq0WQmFHaBILE1SJIzChtAkHiav9sZifFMRIZCbj7RZJurJht9P+gWsVhqqPuvl/SCZULX2Zmj1SuIZ6AgLt/U9JHK0bZekFuk3RWxcAler6Z7a1cQzwBAXe/R9KpFaNsvSDXSbqkYuAS3W9mr6lcQ3zLCbj75ZK+XjnG1guyU9KeyqFL/Coz+3zDOpZsIQF3v0rS5xqO/jUz+0TDut5Lxn4PcqKk+3uf5tnBuyV9QdLdZvZw4x4sWygBdz9G0tslfUzS6Y3HfLeZ/bBxba9lowpSTuDuv5H0+l6nOXzoAUkPbrgHy5dF4IwNj/OkpOPM7D8b7nPE5VMI8hVJo74MjgmIvRdL4Cdmdu7Yp5tCkB2SfiXp6LGHYf9VEbjAzG4ee+LRBen+N+sz3fuJsedh/3UQuMvM3jLFqFMJ8oLuVWTT9yJTMOEayyfwYTO7fopjTiJI9ypyniQ+AJyi1dzX2G1mu6YacTJBOkm+LOmTUw3HddIRmOx/rZ4mN6kgnSS3SjonXXUMNDaBA2b2vLEvcuj+kwvSSXKFpGumHpbrbS2Bf0raYWaPTj3BLIJ0ktR+tXlqNlxvGQTuk/QeM7t3juPMJkgnyRslle9rvX+O4bnmogk8Luna8jCz2b5FMasgT9fj7uU9SRGlfDfnqEXXxuHGJvCQpH3lS65zvWocPOAiBDlIlGO73x8pv0PyBknH8wn82M/H2fcv7yvKd+1u7x7lX6oOzH6q7gCLEuS5oLh7+YoKoizlGTPcOZ4oYszxxrtmhMULUjMMWQgMTQBBhibKfqkIIEiqOhlmaAIIMjRR9ktFAEFS1ckwQxNAkKGJsl8qAgiSqk6GGZoAggxNlP1SEUCQVHUyzNAEEGRoouyXigCCpKqTYYYmgCBDE2W/VAQQJFWdDDM0AQQZmij7pSKAIKnqZJihCSDI0ETZLxUBBElVJ8MMTQBBhibKfqkIIEiqOhlmaAIIMjRR9ktFAEFS1ckwQxNAkKGJsl8qAgiSqk6GGZoAggxNlP1SEUCQVHUyzNAEEGRoouyXigCCpKqTYYYmgCBDE2W/VAQQJFWdDDM0AQQZmij7pSKAIKnqZJihCSDI0ETZLxUBBElVJ8MMTeB/ptTbBTLHhZ8AAAAASUVORK5CYII=;" parent="1" vertex="1">
          <mxGeometry x="150" y="100" width="30" height="30" as="geometry" />
        </mxCell>
        <mxCell id="QQfPTW1r_rw5d-qssDOF-20" value="" style="shape=image;imageAspect=0;aspect=fixed;verticalLabelPosition=bottom;verticalAlign=top;image=data:image/png,iVBORw0KGgoAAAANSUhEUgAAAMgAAADICAYAAACtWK6eAAAK7UlEQVR4Xu2dO8xlVRmG31VYQIMRiAWFNBZaUNhYmBgmRo3RDlHkMl65CDLeLwiKKIj3CyPIxSsjiAY7jdGQMI0JNYUWNppo5SWx0fIzW9Y4//yZ+c/e+7z/rG+d9ZxkiknW/vb6nvd7Zu0z/+UU8YIABM5JoMAGAhA4NwEEYTogcAABBGE8IIAgzAAE1hHgBFnHjasGIYAggwRNm+sIIMg6blw1CAEEGSRo2lxHAEHWceOqQQggyCBB0+Y6AgiyjhtXDUIAQQYJmjbXEUCQddy4ahACCDJI0LS5jgCCrOPGVYMQ6FqQiLhI0sWSLpF04SCZbWyzlHJy4yIWzCLQlSAR8WJJV0p6vaSrJV06q8vxFt1TSvnceG37O+5CkIi4QNLtko5JusyPYScrIokh1vSCRMRRSR+VdIWh39FKIMmWiacWJCK+K+mWLXsc/XIk2WIC0goSEc9Iet0WvXHpaQJIsnIaUgoSER+S9M2VPXHZ2QkgyYrJSCdIRFwv6cSKXrhkMwEk2czojBWpBImIyyU9J+mlC/tg+XwCSDKflbIJ8nVJH1mwf5auI4AkM7mlESQiXlVPjxfN3DvLtiOAJDP4ZRJk+srv3TP2zBIfASTZwDKTINN7j1f7sqfSTAJIcgCoFIJExPTtI3+ZGejoy6aT1v19VkhyjqnKIshVkp4effJn9n9E0msl3TNz/dxlSHIWUlkEuVPSvXOTHHzdkenb2SPis0hy+JOQRZDHJd1w+O3uxB3+J8jUSUR8RtLnzV1xkuwBmkWQZ+vPeWyT9fTo0cNr6nWb1/8FqZLcJekL2xQ8y7VIUqHsjCCllBS9HDSoETH9sJdVkCrJYTyiIomU4yvpEbH1CTKyIFWST0u6j5PESyDFv7oIsijUMx6x9l4ZEXdI+uKiapsXD32SIMjmAbGtOKxHrH2SfErS/bZNv1BoWEkQxDxJLd6D7L9nRHxS0pfMrQ0pCYKYpyiDIPU9ySckfdnc3nCSIIh5grIIgiSeYBHEw3FWlfPxHuQsj1sfl/SVWRucv2iYkwRB5g/F1itbCFJPko9J+urWDZxZYAhJEMQ8NZkesfb979b0u8W+Zm535yVBEPPEZBWkniTTjzNPP9bsfO20JAjiHJUNtVo9Yu07ST4s6RvmtndWEgQxT0rmE+TU3g7p947tpCQIMqAg9XHrg5K+ZW5/5yRBEPOE9HCC7DlJpt+W/20zgp2SBEHM09GTIPUkQZIDQkOQwQWpkkyfvfKAGcVOnCQIYp6K3k6QPY9bH5B03Iyje0kQxDwRvQpST5LbJH3HjKRrSRDEPA09C1IluVXSg2Ys3UqCIOZJ6F2QKsn7JT1kRtOlJAhinoJdEKRKMn303fQReM5Xd5IgiDP+DbUyfKvJknYj4mZJDy+5ZsbariRBkBmJupb0Jkg9SW6S9IiLQa3TjSQIYk5+Vx6x9vYRETdKetSMqgtJEMSc+i4KUk+S90l6zIwrvSQIYk58VwWpkrxX0vfMyFJLgiDmtHdZkCrJeyR934wtrSQIYk561wWpkrxb0g/M6FJKgiDmlEcQpEryLkk/NONLJwmCmBMeRZAqyTsl/ciMMJUkCGJOdyRBqiRHJf3YjDGNJAhiTnY0Qaok06eDTZ8S5nylkARBnJFuqNXjV9Ln4omI6yWdmLt+xrqTpZTmnxqGIDOSci3ZZUHqSXKdpJ+YeCHIKZB8gM6ikTrnB+gsqnJIiyPiWklPGMojCIKsGqPUgtST5B2SnlzV3emLEARBVo1QekGqJNdI+umqDl+4CEEQZNX4dCFIleTtkp5a1SWCnMbGe5BFI9SNIFWSt0n62aIOOUHOxIUgi8anK0GqJFdL+vmiLjlBOEEWDsxoy3kPwnuQ0WZ+Ub8IgiCLBma0xQiCIKPN/KJ+EQRBFg3MaIsRBEFGm/lF/SIIgiwamNEWIwiCjDbzi/pFEARZNDCjLUYQBBlt5hf1iyAIsmhgRluMIAgy2swv6hdBEGTRwIy2GEEQZLSZX9QvgiDIooEZbTGCIMhoM7+oXwQZVJC7F41Jv4uv3HLrCDKaIFsOTFeXR0RsuWEEQZAtRyjx5QhiDGeUn0k3IktfCkGMESGIEWaSUghiDAJBjDCTlEIQYxAIYoSZpBSCGINAECPMJKUQxBgEghhhJimFIMYgEMQIM0kpBDEGgSBGmElKIYgxCAQxwkxSCkGMQSCIEWaSUghiDAJBjDCTlEIQYxAIYoSZpBSCGINAECPMJKUQxBgEghhhJimFIMYgEMQIM0kpBDEGgSBGmElKIYgxCAQxwkxSCkGMQSCIEWaSUghiDAJBjDCTlEIQYxAIYoSZpBSCGINAECPMJKUQxBgEghhhJimFIMYgEMQIM0kpBDEGgSBGmElKIYgxCAQxwkxSCkGMQSCIEWaSUghiDAJBjDCTlEIQYxAIYoSZpBSCGINAECPMJKUQxBgEghhhJimFIMYgEMQIM0kpBDEGgSBGmElKIYgxCAQxwkxSCkGMQSCIEWaSUghiDAJBjDCTlEIQYxAIYoSZpBSCGINAECPMJKUQxBgEghhhJimFIMYgEMQIM0kpBDEGgSBGmElKIYgxCAQxwkxSCkGMQSCIEWaSUghiDAJBjDCTlEIQYxAIYoSZpBSCGINAECPMJKUQxBgEghhhJimFIMYgEMQIM0kpBDEGgSBGmElKIYgxCAQxwkxSCkGMQSCIEWaSUghiDAJBjDCTlEIQYxAIYoSZpBSCGINAECPMJKUQxBgEghhhJimFIMYgEMQIM0kpBDEGgSBGmElKIYgxCAQxwkxSCkGMQSCIEWaSUghiDAJBjDCTlEIQYxAIYoSZpBSCGINAECPMJKUQxBgEghhhJimFIMYgEMQIM0kpBDEGgSBGmElKIYgxCAQxwkxSCkGMQSCIEWaSUghiDAJBjDCTlEIQYxAIYoSZpBSCGINAECPMJKUQxBgEghhhJimFIMYgEMQIM0kpBDEGgSBGmElKIYgxCIcgko4Yt0Sp7Qk8u2WJk6WU5pmWLZuwXB4Rj0u6wVKMIrtC4EQp5WjrZrIIcqeke1vD4P6pCNxVSrmv9Y6yCHKVpKdbw+D+qQi8tZTyi9Y7yiLIyyT9qTUM7p+KwOWllD+33lEKQSYIEfF7Sa9oDYT7pyDwh1LKKzPsJJMgj0q6MQMU9tCcwGOllJua70JSJkHeIOk3GaCwh+YE3lhK+W3zXWQSpD5mPSzp5gxg2EMzAo+UUm5pdvd9N05zglRBXi7pd5IuzQKIfZxXAn+T9JpSyh/P610PuFkqQaokt0t6IAsg9nFeCRwrpRw/r3fccLN0glRJnpB0bSZQ7OXQCTxZSrnu0O+y8AYpBamS/FLSmxf2w/I+CfyqlPKWjFtPK0iV5FZJD2YEx55sBG4rpTxkq2YulFqQKsk1ku6QdIW5d8q1JfC8pPtLKU+13cbBd08vSJXkAknTm/djki7LDJS9bSTw1/qfMMdLKf/ZuLrxgi4EOcUoIl4i6U17/kx/55WfwD8l/frUn1LK9PcuXl0Jsp9oRFwk6WJJl0i6sAvi42zy35L+LukfpZR/9dp214L0Cp1990MAQfrJip02IIAgDaBzy34IIEg/WbHTBgQQpAF0btkPAQTpJyt22oAAgjSAzi37IYAg/WTFThsQQJAG0LllPwQQpJ+s2GkDAgjSADq37IcAgvSTFTttQABBGkDnlv0QQJB+smKnDQggSAPo3LIfAgjST1bstAGB/wLdsUEjNoppsQAAAABJRU5ErkJggg==;" parent="1" vertex="1">
          <mxGeometry x="195" y="140" width="20" height="20" as="geometry" />
        </mxCell>
        <mxCell id="QQfPTW1r_rw5d-qssDOF-25" value="" style="edgeStyle=elbowEdgeStyle;elbow=vertical;endArrow=classic;html=1;" parent="1" edge="1">
          <mxGeometry width="50" height="50" relative="1" as="geometry">
            <mxPoint x="165" y="130" as="sourcePoint" />
            <mxPoint x="195" y="150" as="targetPoint" />
            <Array as="points">
              <mxPoint x="160" y="150" />
            </Array>
          </mxGeometry>
        </mxCell>
        <mxCell id="QQfPTW1r_rw5d-qssDOF-27" value="" style="shape=image;imageAspect=0;aspect=fixed;verticalLabelPosition=bottom;verticalAlign=top;image=data:image/png,iVBORw0KGgoAAAANSUhEUgAAAMgAAADICAYAAACtWK6eAAAK7UlEQVR4Xu2dO8xlVRmG31VYQIMRiAWFNBZaUNhYmBgmRo3RDlHkMl65CDLeLwiKKIj3CyPIxSsjiAY7jdGQMI0JNYUWNppo5SWx0fIzW9Y4//yZ+c/e+7z/rG+d9ZxkiknW/vb6nvd7Zu0z/+UU8YIABM5JoMAGAhA4NwEEYTogcAABBGE8IIAgzAAE1hHgBFnHjasGIYAggwRNm+sIIMg6blw1CAEEGSRo2lxHAEHWceOqQQggyCBB0+Y6AgiyjhtXDUIAQQYJmjbXEUCQddy4ahACCDJI0LS5jgCCrOPGVYMQ6FqQiLhI0sWSLpF04SCZbWyzlHJy4yIWzCLQlSAR8WJJV0p6vaSrJV06q8vxFt1TSvnceG37O+5CkIi4QNLtko5JusyPYScrIokh1vSCRMRRSR+VdIWh39FKIMmWiacWJCK+K+mWLXsc/XIk2WIC0goSEc9Iet0WvXHpaQJIsnIaUgoSER+S9M2VPXHZ2QkgyYrJSCdIRFwv6cSKXrhkMwEk2czojBWpBImIyyU9J+mlC/tg+XwCSDKflbIJ8nVJH1mwf5auI4AkM7mlESQiXlVPjxfN3DvLtiOAJDP4ZRJk+srv3TP2zBIfASTZwDKTINN7j1f7sqfSTAJIcgCoFIJExPTtI3+ZGejoy6aT1v19VkhyjqnKIshVkp4effJn9n9E0msl3TNz/dxlSHIWUlkEuVPSvXOTHHzdkenb2SPis0hy+JOQRZDHJd1w+O3uxB3+J8jUSUR8RtLnzV1xkuwBmkWQZ+vPeWyT9fTo0cNr6nWb1/8FqZLcJekL2xQ8y7VIUqHsjCCllBS9HDSoETH9sJdVkCrJYTyiIomU4yvpEbH1CTKyIFWST0u6j5PESyDFv7oIsijUMx6x9l4ZEXdI+uKiapsXD32SIMjmAbGtOKxHrH2SfErS/bZNv1BoWEkQxDxJLd6D7L9nRHxS0pfMrQ0pCYKYpyiDIPU9ySckfdnc3nCSIIh5grIIgiSeYBHEw3FWlfPxHuQsj1sfl/SVWRucv2iYkwRB5g/F1itbCFJPko9J+urWDZxZYAhJEMQ8NZkesfb979b0u8W+Zm535yVBEPPEZBWkniTTjzNPP9bsfO20JAjiHJUNtVo9Yu07ST4s6RvmtndWEgQxT0rmE+TU3g7p947tpCQIMqAg9XHrg5K+ZW5/5yRBEPOE9HCC7DlJpt+W/20zgp2SBEHM09GTIPUkQZIDQkOQwQWpkkyfvfKAGcVOnCQIYp6K3k6QPY9bH5B03Iyje0kQxDwRvQpST5LbJH3HjKRrSRDEPA09C1IluVXSg2Ys3UqCIOZJ6F2QKsn7JT1kRtOlJAhinoJdEKRKMn303fQReM5Xd5IgiDP+DbUyfKvJknYj4mZJDy+5ZsbariRBkBmJupb0Jkg9SW6S9IiLQa3TjSQIYk5+Vx6x9vYRETdKetSMqgtJEMSc+i4KUk+S90l6zIwrvSQIYk58VwWpkrxX0vfMyFJLgiDmtHdZkCrJeyR934wtrSQIYk561wWpkrxb0g/M6FJKgiDmlEcQpEryLkk/NONLJwmCmBMeRZAqyTsl/ciMMJUkCGJOdyRBqiRHJf3YjDGNJAhiTnY0Qaok06eDTZ8S5nylkARBnJFuqNXjV9Ln4omI6yWdmLt+xrqTpZTmnxqGIDOSci3ZZUHqSXKdpJ+YeCHIKZB8gM6ikTrnB+gsqnJIiyPiWklPGMojCIKsGqPUgtST5B2SnlzV3emLEARBVo1QekGqJNdI+umqDl+4CEEQZNX4dCFIleTtkp5a1SWCnMbGe5BFI9SNIFWSt0n62aIOOUHOxIUgi8anK0GqJFdL+vmiLjlBOEEWDsxoy3kPwnuQ0WZ+Ub8IgiCLBma0xQiCIKPN/KJ+EQRBFg3MaIsRBEFGm/lF/SIIgiwamNEWIwiCjDbzi/pFEARZNDCjLUYQBBlt5hf1iyAIsmhgRluMIAgy2swv6hdBEGTRwIy2GEEQZLSZX9QvgiDIooEZbTGCIMhoM7+oXwQZVJC7F41Jv4uv3HLrCDKaIFsOTFeXR0RsuWEEQZAtRyjx5QhiDGeUn0k3IktfCkGMESGIEWaSUghiDAJBjDCTlEIQYxAIYoSZpBSCGINAECPMJKUQxBgEghhhJimFIMYgEMQIM0kpBDEGgSBGmElKIYgxCAQxwkxSCkGMQSCIEWaSUghiDAJBjDCTlEIQYxAIYoSZpBSCGINAECPMJKUQxBgEghhhJimFIMYgEMQIM0kpBDEGgSBGmElKIYgxCAQxwkxSCkGMQSCIEWaSUghiDAJBjDCTlEIQYxAIYoSZpBSCGINAECPMJKUQxBgEghhhJimFIMYgEMQIM0kpBDEGgSBGmElKIYgxCAQxwkxSCkGMQSCIEWaSUghiDAJBjDCTlEIQYxAIYoSZpBSCGINAECPMJKUQxBgEghhhJimFIMYgEMQIM0kpBDEGgSBGmElKIYgxCAQxwkxSCkGMQSCIEWaSUghiDAJBjDCTlEIQYxAIYoSZpBSCGINAECPMJKUQxBgEghhhJimFIMYgEMQIM0kpBDEGgSBGmElKIYgxCAQxwkxSCkGMQSCIEWaSUghiDAJBjDCTlEIQYxAIYoSZpBSCGINAECPMJKUQxBgEghhhJimFIMYgEMQIM0kpBDEGgSBGmElKIYgxCAQxwkxSCkGMQSCIEWaSUghiDAJBjDCTlEIQYxAIYoSZpBSCGINAECPMJKUQxBgEghhhJimFIMYgEMQIM0kpBDEGgSBGmElKIYgxCAQxwkxSCkGMQSCIEWaSUghiDAJBjDCTlEIQYxAIYoSZpBSCGINAECPMJKUQxBgEghhhJimFIMYgEMQIM0kpBDEGgSBGmElKIYgxCAQxwkxSCkGMQSCIEWaSUghiDAJBjDCTlEIQYxAIYoSZpBSCGINAECPMJKUQxBgEghhhJimFIMYgEMQIM0kpBDEGgSBGmElKIYgxCIcgko4Yt0Sp7Qk8u2WJk6WU5pmWLZuwXB4Rj0u6wVKMIrtC4EQp5WjrZrIIcqeke1vD4P6pCNxVSrmv9Y6yCHKVpKdbw+D+qQi8tZTyi9Y7yiLIyyT9qTUM7p+KwOWllD+33lEKQSYIEfF7Sa9oDYT7pyDwh1LKKzPsJJMgj0q6MQMU9tCcwGOllJua70JSJkHeIOk3GaCwh+YE3lhK+W3zXWQSpD5mPSzp5gxg2EMzAo+UUm5pdvd9N05zglRBXi7pd5IuzQKIfZxXAn+T9JpSyh/P610PuFkqQaokt0t6IAsg9nFeCRwrpRw/r3fccLN0glRJnpB0bSZQ7OXQCTxZSrnu0O+y8AYpBamS/FLSmxf2w/I+CfyqlPKWjFtPK0iV5FZJD2YEx55sBG4rpTxkq2YulFqQKsk1ku6QdIW5d8q1JfC8pPtLKU+13cbBd08vSJXkAknTm/djki7LDJS9bSTw1/qfMMdLKf/ZuLrxgi4EOcUoIl4i6U17/kx/55WfwD8l/frUn1LK9PcuXl0Jsp9oRFwk6WJJl0i6sAvi42zy35L+LukfpZR/9dp214L0Cp1990MAQfrJip02IIAgDaBzy34IIEg/WbHTBgQQpAF0btkPAQTpJyt22oAAgjSAzi37IYAg/WTFThsQQJAG0LllPwQQpJ+s2GkDAgjSADq37IcAgvSTFTttQABBGkDnlv0QQJB+smKnDQggSAPo3LIfAgjST1bstAGB/wLdsUEjNoppsQAAAABJRU5ErkJggg==;" parent="1" vertex="1">
          <mxGeometry x="195" y="165" width="20" height="20" as="geometry" />
        </mxCell>
        <mxCell id="QQfPTW1r_rw5d-qssDOF-28" value="" style="edgeStyle=elbowEdgeStyle;elbow=vertical;endArrow=classic;html=1;" parent="1" edge="1">
          <mxGeometry width="50" height="50" relative="1" as="geometry">
            <mxPoint x="165" y="155" as="sourcePoint" />
            <mxPoint x="195" y="175" as="targetPoint" />
            <Array as="points">
              <mxPoint x="160" y="175" />
            </Array>
          </mxGeometry>
        </mxCell>
        <mxCell id="QQfPTW1r_rw5d-qssDOF-31" value="" style="shape=image;imageAspect=0;aspect=fixed;verticalLabelPosition=bottom;verticalAlign=top;image=data:image/png,iVBORw0KGgoAAAANSUhEUgAAAMgAAADICAYAAACtWK6eAAAK7UlEQVR4Xu2dO8xlVRmG31VYQIMRiAWFNBZaUNhYmBgmRo3RDlHkMl65CDLeLwiKKIj3CyPIxSsjiAY7jdGQMI0JNYUWNppo5SWx0fIzW9Y4//yZ+c/e+7z/rG+d9ZxkiknW/vb6nvd7Zu0z/+UU8YIABM5JoMAGAhA4NwEEYTogcAABBGE8IIAgzAAE1hHgBFnHjasGIYAggwRNm+sIIMg6blw1CAEEGSRo2lxHAEHWceOqQQggyCBB0+Y6AgiyjhtXDUIAQQYJmjbXEUCQddy4ahACCDJI0LS5jgCCrOPGVYMQ6FqQiLhI0sWSLpF04SCZbWyzlHJy4yIWzCLQlSAR8WJJV0p6vaSrJV06q8vxFt1TSvnceG37O+5CkIi4QNLtko5JusyPYScrIokh1vSCRMRRSR+VdIWh39FKIMmWiacWJCK+K+mWLXsc/XIk2WIC0goSEc9Iet0WvXHpaQJIsnIaUgoSER+S9M2VPXHZ2QkgyYrJSCdIRFwv6cSKXrhkMwEk2czojBWpBImIyyU9J+mlC/tg+XwCSDKflbIJ8nVJH1mwf5auI4AkM7mlESQiXlVPjxfN3DvLtiOAJDP4ZRJk+srv3TP2zBIfASTZwDKTINN7j1f7sqfSTAJIcgCoFIJExPTtI3+ZGejoy6aT1v19VkhyjqnKIshVkp4effJn9n9E0msl3TNz/dxlSHIWUlkEuVPSvXOTHHzdkenb2SPis0hy+JOQRZDHJd1w+O3uxB3+J8jUSUR8RtLnzV1xkuwBmkWQZ+vPeWyT9fTo0cNr6nWb1/8FqZLcJekL2xQ8y7VIUqHsjCCllBS9HDSoETH9sJdVkCrJYTyiIomU4yvpEbH1CTKyIFWST0u6j5PESyDFv7oIsijUMx6x9l4ZEXdI+uKiapsXD32SIMjmAbGtOKxHrH2SfErS/bZNv1BoWEkQxDxJLd6D7L9nRHxS0pfMrQ0pCYKYpyiDIPU9ySckfdnc3nCSIIh5grIIgiSeYBHEw3FWlfPxHuQsj1sfl/SVWRucv2iYkwRB5g/F1itbCFJPko9J+urWDZxZYAhJEMQ8NZkesfb979b0u8W+Zm535yVBEPPEZBWkniTTjzNPP9bsfO20JAjiHJUNtVo9Yu07ST4s6RvmtndWEgQxT0rmE+TU3g7p947tpCQIMqAg9XHrg5K+ZW5/5yRBEPOE9HCC7DlJpt+W/20zgp2SBEHM09GTIPUkQZIDQkOQwQWpkkyfvfKAGcVOnCQIYp6K3k6QPY9bH5B03Iyje0kQxDwRvQpST5LbJH3HjKRrSRDEPA09C1IluVXSg2Ys3UqCIOZJ6F2QKsn7JT1kRtOlJAhinoJdEKRKMn303fQReM5Xd5IgiDP+DbUyfKvJknYj4mZJDy+5ZsbariRBkBmJupb0Jkg9SW6S9IiLQa3TjSQIYk5+Vx6x9vYRETdKetSMqgtJEMSc+i4KUk+S90l6zIwrvSQIYk58VwWpkrxX0vfMyFJLgiDmtHdZkCrJeyR934wtrSQIYk561wWpkrxb0g/M6FJKgiDmlEcQpEryLkk/NONLJwmCmBMeRZAqyTsl/ciMMJUkCGJOdyRBqiRHJf3YjDGNJAhiTnY0Qaok06eDTZ8S5nylkARBnJFuqNXjV9Ln4omI6yWdmLt+xrqTpZTmnxqGIDOSci3ZZUHqSXKdpJ+YeCHIKZB8gM6ikTrnB+gsqnJIiyPiWklPGMojCIKsGqPUgtST5B2SnlzV3emLEARBVo1QekGqJNdI+umqDl+4CEEQZNX4dCFIleTtkp5a1SWCnMbGe5BFI9SNIFWSt0n62aIOOUHOxIUgi8anK0GqJFdL+vmiLjlBOEEWDsxoy3kPwnuQ0WZ+Ub8IgiCLBma0xQiCIKPN/KJ+EQRBFg3MaIsRBEFGm/lF/SIIgiwamNEWIwiCjDbzi/pFEARZNDCjLUYQBBlt5hf1iyAIsmhgRluMIAgy2swv6hdBEGTRwIy2GEEQZLSZX9QvgiDIooEZbTGCIMhoM7+oXwQZVJC7F41Jv4uv3HLrCDKaIFsOTFeXR0RsuWEEQZAtRyjx5QhiDGeUn0k3IktfCkGMESGIEWaSUghiDAJBjDCTlEIQYxAIYoSZpBSCGINAECPMJKUQxBgEghhhJimFIMYgEMQIM0kpBDEGgSBGmElKIYgxCAQxwkxSCkGMQSCIEWaSUghiDAJBjDCTlEIQYxAIYoSZpBSCGINAECPMJKUQxBgEghhhJimFIMYgEMQIM0kpBDEGgSBGmElKIYgxCAQxwkxSCkGMQSCIEWaSUghiDAJBjDCTlEIQYxAIYoSZpBSCGINAECPMJKUQxBgEghhhJimFIMYgEMQIM0kpBDEGgSBGmElKIYgxCAQxwkxSCkGMQSCIEWaSUghiDAJBjDCTlEIQYxAIYoSZpBSCGINAECPMJKUQxBgEghhhJimFIMYgEMQIM0kpBDEGgSBGmElKIYgxCAQxwkxSCkGMQSCIEWaSUghiDAJBjDCTlEIQYxAIYoSZpBSCGINAECPMJKUQxBgEghhhJimFIMYgEMQIM0kpBDEGgSBGmElKIYgxCAQxwkxSCkGMQSCIEWaSUghiDAJBjDCTlEIQYxAIYoSZpBSCGINAECPMJKUQxBgEghhhJimFIMYgEMQIM0kpBDEGgSBGmElKIYgxCAQxwkxSCkGMQSCIEWaSUghiDAJBjDCTlEIQYxAIYoSZpBSCGINAECPMJKUQxBgEghhhJimFIMYgEMQIM0kpBDEGgSBGmElKIYgxCAQxwkxSCkGMQSCIEWaSUghiDAJBjDCTlEIQYxAIYoSZpBSCGINAECPMJKUQxBgEghhhJimFIMYgEMQIM0kpBDEGgSBGmElKIYgxCAQxwkxSCkGMQSCIEWaSUghiDAJBjDCTlEIQYxAIYoSZpBSCGINAECPMJKUQxBgEghhhJimFIMYgEMQIM0kpBDEGgSBGmElKIYgxCIcgko4Yt0Sp7Qk8u2WJk6WU5pmWLZuwXB4Rj0u6wVKMIrtC4EQp5WjrZrIIcqeke1vD4P6pCNxVSrmv9Y6yCHKVpKdbw+D+qQi8tZTyi9Y7yiLIyyT9qTUM7p+KwOWllD+33lEKQSYIEfF7Sa9oDYT7pyDwh1LKKzPsJJMgj0q6MQMU9tCcwGOllJua70JSJkHeIOk3GaCwh+YE3lhK+W3zXWQSpD5mPSzp5gxg2EMzAo+UUm5pdvd9N05zglRBXi7pd5IuzQKIfZxXAn+T9JpSyh/P610PuFkqQaokt0t6IAsg9nFeCRwrpRw/r3fccLN0glRJnpB0bSZQ7OXQCTxZSrnu0O+y8AYpBamS/FLSmxf2w/I+CfyqlPKWjFtPK0iV5FZJD2YEx55sBG4rpTxkq2YulFqQKsk1ku6QdIW5d8q1JfC8pPtLKU+13cbBd08vSJXkAknTm/djki7LDJS9bSTw1/qfMMdLKf/ZuLrxgi4EOcUoIl4i6U17/kx/55WfwD8l/frUn1LK9PcuXl0Jsp9oRFwk6WJJl0i6sAvi42zy35L+LukfpZR/9dp214L0Cp1990MAQfrJip02IIAgDaBzy34IIEg/WbHTBgQQpAF0btkPAQTpJyt22oAAgjSAzi37IYAg/WTFThsQQJAG0LllPwQQpJ+s2GkDAgjSADq37IcAgvSTFTttQABBGkDnlv0QQJB+smKnDQggSAPo3LIfAgjST1bstAGB/wLdsUEjNoppsQAAAABJRU5ErkJggg==;" parent="1" vertex="1">
          <mxGeometry x="195" y="190" width="20" height="20" as="geometry" />
        </mxCell>
        <mxCell id="QQfPTW1r_rw5d-qssDOF-32" value="" style="edgeStyle=elbowEdgeStyle;elbow=vertical;endArrow=classic;html=1;" parent="1" edge="1">
          <mxGeometry width="50" height="50" relative="1" as="geometry">
            <mxPoint x="165" y="180" as="sourcePoint" />
            <mxPoint x="195" y="200.0000000000001" as="targetPoint" />
            <Array as="points">
              <mxPoint x="160" y="200" />
            </Array>
          </mxGeometry>
        </mxCell>
        <mxCell id="QQfPTW1r_rw5d-qssDOF-33" value="" style="shape=image;imageAspect=0;aspect=fixed;verticalLabelPosition=bottom;verticalAlign=top;image=data:image/png,iVBORw0KGgoAAAANSUhEUgAAAMgAAADICAYAAACtWK6eAAALWklEQVR4Xu2dbchlVRmG7wcsCiLMkpKgRJIa/WMJGUagpNKXYIY/kiLDsswRCppIMjJIIxoqGqkEUyjCCGGaCsPU8ocFhvRFmSgTFIiVaYGS/hh4YsnWxsGZZ6919td59vXC+Xevtddz3efyeOacd78mfiAAgcMSMNhAAAKHJ4AgPDsgcAQCCMLTAwIIwnMAAm0EeAVp48aqlRBAkJUUzZhtBBCkjRurVkIAQVZSNGO2EUCQNm6sWgkBBFlJ0YzZRgBB2rixaiUEEGQlRTNmGwEEaePGqpUQQJCVFM2YbQQQpI0bq1ZCAEFWUjRjthFAkDZurFoJAQRZSdGM2UYAQdq4sWolBBBkJUUzZhsBBGnjxqqVEECQlRTNmG0EEKSNG6tWQgBBVlI0Y7YRQJA2bqxaCQEEWUnRjNlGAEHauLFqJQQQZCVFM2YbAQRp48aqlRBAkJUUzZhtBBCkjRurVkIAQVZSNGO2EVisIO5+lKSXHPR4YduIVav+LekvZvZY1SrCaQksShB3P1bSBd3jjBmpP1xEkXR797jLzA7MeB4uPROBRQji7idJulzS+yS9aCYWR7rsQ5L2SdpjZvcu8HwcaSQCswri7q+UtLN7LFGMQ7E/Luna8jCzB0fqhG0XRGA2Qdz9TZJulPS6BfHoe5QHJF1iZnf2XUBuOwnMIoi7v03ST7cT2TOnLu9JzkaSLW8xOP7kgrj7FZKuSYT1NDP7daJ5GOUgApMK4u4flHRDwgaOM7O/J5xr9SNNJoi7v1nSbZKm+Dxj6mLvkPQuM3ty6gtzvXEJTCnIrZLOGXecWXf/tpl9aNYTcPHBCUwiiLt/RNK3Bj/98jZ8p5ndsrxjcaJWAqML0n06/ktJJ7YecovW/dzM3rpF5+Woc/8rlrtf1n24tpYyLjSzm9YybPY5p3gF+ZGkcxtBlrX3SfqdpPJ1jyl+TpV0Wvd9sJbr3WBmF7csZM3yCIwqiLu/YoMn9jvMbLYPE929fGlyj6SXV9b2NzN7deUa4gslMLYgl0r6Ru3sZjbquWrO4+5/lHRyzRpJp5jZ7yvXEF8ggVGfiO5+XfnOUuXcu81sV+Wa0eLdN43vqfz8hvchozUy7cZjC1I+GDyrYqTHzOzFFflJou7+PUkXVlzsSjO7uiJPdKEExhZkv6QTKma/38xeW5GfJOrun5b0xYqL8Ua9AtaSo2ML4pXD32lmZ1auGT3u7uW3G39RcaFFzlFxfqIdAQTp8VRAkB6QkkYQpEexCNIDUtIIgvQoFkF6QEoaQZAexSJID0hJIwjSo1gE6QEpaQRBehTr7jsk1d7u52RuEdQD7sIjCNKjIHcvd3h8tEf04MifJN1cuWYt8ScklbtYPvUws3KDvkX+IEjPWtz9X5Je2jNOrI7Af7t7Fdwy5xdUn+vICNKzSHcv9/C6qGecWDuBcoeYcmO+77ZvMdxKBOnJ0t3L73hc3zNObHMCP+tE+fHmW7XvgCA92bn70d3XTU7puYTYMASuNrMrh9mqfhcEqWDm7udJ2luxhOgwBPaZWWE/+Q+CVCJ3969K+njlMuKbE/iOmX1g823qdkCQOl5Ppd39t+W3BhuWsmQzApea2aS3j0KQxsLc/RFJxzQuZ1k7gfea2ffbl9etRJA6Xs9Ku/sPNrj7yQZXXvXSP5S7zkx1m1cE2fC55u5fkvSpDbdheR2BXWa2u25JWxpB2rgd+kpSbsxdJCl/9+T5A2zJFkcm8NfuVeQfY4NCkAEJd5+VlF/PPb27VVD524vHD3gJtvo/gcvMrPqWUrUAEaSWGPlBCLj7qySVx2cb7/q/18zOH+QwR9gEQcYmzP4hge4uluUfPGp+JrlFFILUVEJ2NAKNfyLjzLH/RiSCjFY5G9cScPfyBcWzK9ZdbGaj/kk/BKlog+i4BNy93Cx8Z8VVRv8iI4JUtEF0XALuXu7jXO7n3PfnJjOruSVs332fySFINTIWjEVgiTfHQJCx2mbfagIIEiPjnrYxo7QJBImrRZCYUdoEgsTVIkjMKG0CQeJqESRmlDaBIHG1CBIzSptAkLhaBIkZpU0gSFwtgsSM0iYQJK4WQWJGaRMIEleLIDGjtAkEiatFkJhR2gSCxNUiSMwobQJB4moRJGaUNoEgcbUIEjNKm0CQuFoEiRmlTSBIXC2CxIzSJhAkrhZBYkZpEwgSV4sgMaO0CQSJq0WQmFHaBILE1SJIzChtAkHiahEkZpQ2gSBxtQgSM0qbQJC4WgSJGaVNIEhcLYLEjNImECSuFkFiRmkTCBJXiyAxo7QJBImrRZCYUdoEgsTVIkjMKG0CQeJqESRmlDaBIHG1CBIzSptAkLhaBIkZpU0gSFwtgsSM0iYQJK4WQWJGaRMIEleLIDGjtAkEiatFkJhR2gSCxNUiSMwobQJB4moRJGaUNoEgcbUIEjNKm0CQuFoEiRmlTSBIXC2CxIzSJhAkrhZBYkZpEwgSV4sgMaO0CQSJq0WQmFHaBILE1SJIzChtAkHiahEkZpQ2gSBxtQgSM0qbQJC4WgSJGaVNIEhcLYLEjNImECSuFkFiRmkTCBJXiyAxo7QJBImrRZCYUdoEgsTVIkjMKG0CQeJqESRmlDaBIHG1CBIzSptAkLhaBIkZpU0gSFwtgsSM0iYQJK4WQWJGaRMIEleLIDGjtAkEiatFkJhR2gSCxNUiSMwobQJB4moRJGaUNoEgcbUIEjNKm0CQuFoEiRmlTSBIXC2CxIzSJhAkrhZBYkZpEwgSV4sgMaO0CQSJq0WQmFHaBILE1SJIzChtAkHiav9sZifFMRIZCbj7RZJurJht9P+gWsVhqqPuvl/SCZULX2Zmj1SuIZ6AgLt/U9JHK0bZekFuk3RWxcAler6Z7a1cQzwBAXe/R9KpFaNsvSDXSbqkYuAS3W9mr6lcQ3zLCbj75ZK+XjnG1guyU9KeyqFL/Coz+3zDOpZsIQF3v0rS5xqO/jUz+0TDut5Lxn4PcqKk+3uf5tnBuyV9QdLdZvZw4x4sWygBdz9G0tslfUzS6Y3HfLeZ/bBxba9lowpSTuDuv5H0+l6nOXzoAUkPbrgHy5dF4IwNj/OkpOPM7D8b7nPE5VMI8hVJo74MjgmIvRdL4Cdmdu7Yp5tCkB2SfiXp6LGHYf9VEbjAzG4ee+LRBen+N+sz3fuJsedh/3UQuMvM3jLFqFMJ8oLuVWTT9yJTMOEayyfwYTO7fopjTiJI9ypyniQ+AJyi1dzX2G1mu6YacTJBOkm+LOmTUw3HddIRmOx/rZ4mN6kgnSS3SjonXXUMNDaBA2b2vLEvcuj+kwvSSXKFpGumHpbrbS2Bf0raYWaPTj3BLIJ0ktR+tXlqNlxvGQTuk/QeM7t3juPMJkgnyRslle9rvX+O4bnmogk8Luna8jCz2b5FMasgT9fj7uU9SRGlfDfnqEXXxuHGJvCQpH3lS65zvWocPOAiBDlIlGO73x8pv0PyBknH8wn82M/H2fcv7yvKd+1u7x7lX6oOzH6q7gCLEuS5oLh7+YoKoizlGTPcOZ4oYszxxrtmhMULUjMMWQgMTQBBhibKfqkIIEiqOhlmaAIIMjRR9ktFAEFS1ckwQxNAkKGJsl8qAgiSqk6GGZoAggxNlP1SEUCQVHUyzNAEEGRoouyXigCCpKqTYYYmgCBDE2W/VAQQJFWdDDM0AQQZmij7pSKAIKnqZJihCSDI0ETZLxUBBElVJ8MMTQBBhibKfqkIIEiqOhlmaAIIMjRR9ktFAEFS1ckwQxNAkKGJsl8qAgiSqk6GGZoAggxNlP1SEUCQVHUyzNAEEGRoouyXigCCpKqTYYYmgCBDE2W/VAQQJFWdDDM0AQQZmij7pSKAIKnqZJihCSDI0ETZLxUBBElVJ8MMTeB/ptTbBTLHhZ8AAAAASUVORK5CYII=;" parent="1" vertex="1">
          <mxGeometry x="560" y="100" width="30" height="30" as="geometry" />
        </mxCell>
        <mxCell id="QQfPTW1r_rw5d-qssDOF-34" value="" style="shape=image;imageAspect=0;aspect=fixed;verticalLabelPosition=bottom;verticalAlign=top;image=data:image/png,iVBORw0KGgoAAAANSUhEUgAAAMgAAADICAYAAACtWK6eAAAK7UlEQVR4Xu2dO8xlVRmG31VYQIMRiAWFNBZaUNhYmBgmRo3RDlHkMl65CDLeLwiKKIj3CyPIxSsjiAY7jdGQMI0JNYUWNppo5SWx0fIzW9Y4//yZ+c/e+7z/rG+d9ZxkiknW/vb6nvd7Zu0z/+UU8YIABM5JoMAGAhA4NwEEYTogcAABBGE8IIAgzAAE1hHgBFnHjasGIYAggwRNm+sIIMg6blw1CAEEGSRo2lxHAEHWceOqQQggyCBB0+Y6AgiyjhtXDUIAQQYJmjbXEUCQddy4ahACCDJI0LS5jgCCrOPGVYMQ6FqQiLhI0sWSLpF04SCZbWyzlHJy4yIWzCLQlSAR8WJJV0p6vaSrJV06q8vxFt1TSvnceG37O+5CkIi4QNLtko5JusyPYScrIokh1vSCRMRRSR+VdIWh39FKIMmWiacWJCK+K+mWLXsc/XIk2WIC0goSEc9Iet0WvXHpaQJIsnIaUgoSER+S9M2VPXHZ2QkgyYrJSCdIRFwv6cSKXrhkMwEk2czojBWpBImIyyU9J+mlC/tg+XwCSDKflbIJ8nVJH1mwf5auI4AkM7mlESQiXlVPjxfN3DvLtiOAJDP4ZRJk+srv3TP2zBIfASTZwDKTINN7j1f7sqfSTAJIcgCoFIJExPTtI3+ZGejoy6aT1v19VkhyjqnKIshVkp4effJn9n9E0msl3TNz/dxlSHIWUlkEuVPSvXOTHHzdkenb2SPis0hy+JOQRZDHJd1w+O3uxB3+J8jUSUR8RtLnzV1xkuwBmkWQZ+vPeWyT9fTo0cNr6nWb1/8FqZLcJekL2xQ8y7VIUqHsjCCllBS9HDSoETH9sJdVkCrJYTyiIomU4yvpEbH1CTKyIFWST0u6j5PESyDFv7oIsijUMx6x9l4ZEXdI+uKiapsXD32SIMjmAbGtOKxHrH2SfErS/bZNv1BoWEkQxDxJLd6D7L9nRHxS0pfMrQ0pCYKYpyiDIPU9ySckfdnc3nCSIIh5grIIgiSeYBHEw3FWlfPxHuQsj1sfl/SVWRucv2iYkwRB5g/F1itbCFJPko9J+urWDZxZYAhJEMQ8NZkesfb979b0u8W+Zm535yVBEPPEZBWkniTTjzNPP9bsfO20JAjiHJUNtVo9Yu07ST4s6RvmtndWEgQxT0rmE+TU3g7p947tpCQIMqAg9XHrg5K+ZW5/5yRBEPOE9HCC7DlJpt+W/20zgp2SBEHM09GTIPUkQZIDQkOQwQWpkkyfvfKAGcVOnCQIYp6K3k6QPY9bH5B03Iyje0kQxDwRvQpST5LbJH3HjKRrSRDEPA09C1IluVXSg2Ys3UqCIOZJ6F2QKsn7JT1kRtOlJAhinoJdEKRKMn303fQReM5Xd5IgiDP+DbUyfKvJknYj4mZJDy+5ZsbariRBkBmJupb0Jkg9SW6S9IiLQa3TjSQIYk5+Vx6x9vYRETdKetSMqgtJEMSc+i4KUk+S90l6zIwrvSQIYk58VwWpkrxX0vfMyFJLgiDmtHdZkCrJeyR934wtrSQIYk561wWpkrxb0g/M6FJKgiDmlEcQpEryLkk/NONLJwmCmBMeRZAqyTsl/ciMMJUkCGJOdyRBqiRHJf3YjDGNJAhiTnY0Qaok06eDTZ8S5nylkARBnJFuqNXjV9Ln4omI6yWdmLt+xrqTpZTmnxqGIDOSci3ZZUHqSXKdpJ+YeCHIKZB8gM6ikTrnB+gsqnJIiyPiWklPGMojCIKsGqPUgtST5B2SnlzV3emLEARBVo1QekGqJNdI+umqDl+4CEEQZNX4dCFIleTtkp5a1SWCnMbGe5BFI9SNIFWSt0n62aIOOUHOxIUgi8anK0GqJFdL+vmiLjlBOEEWDsxoy3kPwnuQ0WZ+Ub8IgiCLBma0xQiCIKPN/KJ+EQRBFg3MaIsRBEFGm/lF/SIIgiwamNEWIwiCjDbzi/pFEARZNDCjLUYQBBlt5hf1iyAIsmhgRluMIAgy2swv6hdBEGTRwIy2GEEQZLSZX9QvgiDIooEZbTGCIMhoM7+oXwQZVJC7F41Jv4uv3HLrCDKaIFsOTFeXR0RsuWEEQZAtRyjx5QhiDGeUn0k3IktfCkGMESGIEWaSUghiDAJBjDCTlEIQYxAIYoSZpBSCGINAECPMJKUQxBgEghhhJimFIMYgEMQIM0kpBDEGgSBGmElKIYgxCAQxwkxSCkGMQSCIEWaSUghiDAJBjDCTlEIQYxAIYoSZpBSCGINAECPMJKUQxBgEghhhJimFIMYgEMQIM0kpBDEGgSBGmElKIYgxCAQxwkxSCkGMQSCIEWaSUghiDAJBjDCTlEIQYxAIYoSZpBSCGINAECPMJKUQxBgEghhhJimFIMYgEMQIM0kpBDEGgSBGmElKIYgxCAQxwkxSCkGMQSCIEWaSUghiDAJBjDCTlEIQYxAIYoSZpBSCGINAECPMJKUQxBgEghhhJimFIMYgEMQIM0kpBDEGgSBGmElKIYgxCAQxwkxSCkGMQSCIEWaSUghiDAJBjDCTlEIQYxAIYoSZpBSCGINAECPMJKUQxBgEghhhJimFIMYgEMQIM0kpBDEGgSBGmElKIYgxCAQxwkxSCkGMQSCIEWaSUghiDAJBjDCTlEIQYxAIYoSZpBSCGINAECPMJKUQxBgEghhhJimFIMYgEMQIM0kpBDEGgSBGmElKIYgxCAQxwkxSCkGMQSCIEWaSUghiDAJBjDCTlEIQYxAIYoSZpBSCGINAECPMJKUQxBgEghhhJimFIMYgEMQIM0kpBDEGgSBGmElKIYgxCAQxwkxSCkGMQSCIEWaSUghiDAJBjDCTlEIQYxAIYoSZpBSCGINAECPMJKUQxBgEghhhJimFIMYgEMQIM0kpBDEGgSBGmElKIYgxCAQxwkxSCkGMQSCIEWaSUghiDAJBjDCTlEIQYxAIYoSZpBSCGINAECPMJKUQxBgEghhhJimFIMYgEMQIM0kpBDEGgSBGmElKIYgxCIcgko4Yt0Sp7Qk8u2WJk6WU5pmWLZuwXB4Rj0u6wVKMIrtC4EQp5WjrZrIIcqeke1vD4P6pCNxVSrmv9Y6yCHKVpKdbw+D+qQi8tZTyi9Y7yiLIyyT9qTUM7p+KwOWllD+33lEKQSYIEfF7Sa9oDYT7pyDwh1LKKzPsJJMgj0q6MQMU9tCcwGOllJua70JSJkHeIOk3GaCwh+YE3lhK+W3zXWQSpD5mPSzp5gxg2EMzAo+UUm5pdvd9N05zglRBXi7pd5IuzQKIfZxXAn+T9JpSyh/P610PuFkqQaokt0t6IAsg9nFeCRwrpRw/r3fccLN0glRJnpB0bSZQ7OXQCTxZSrnu0O+y8AYpBamS/FLSmxf2w/I+CfyqlPKWjFtPK0iV5FZJD2YEx55sBG4rpTxkq2YulFqQKsk1ku6QdIW5d8q1JfC8pPtLKU+13cbBd08vSJXkAknTm/djki7LDJS9bSTw1/qfMMdLKf/ZuLrxgi4EOcUoIl4i6U17/kx/55WfwD8l/frUn1LK9PcuXl0Jsp9oRFwk6WJJl0i6sAvi42zy35L+LukfpZR/9dp214L0Cp1990MAQfrJip02IIAgDaBzy34IIEg/WbHTBgQQpAF0btkPAQTpJyt22oAAgjSAzi37IYAg/WTFThsQQJAG0LllPwQQpJ+s2GkDAgjSADq37IcAgvSTFTttQABBGkDnlv0QQJB+smKnDQggSAPo3LIfAgjST1bstAGB/wLdsUEjNoppsQAAAABJRU5ErkJggg==;" parent="1" vertex="1">
          <mxGeometry x="605" y="140" width="20" height="20" as="geometry" />
        </mxCell>
        <mxCell id="QQfPTW1r_rw5d-qssDOF-35" value="" style="edgeStyle=elbowEdgeStyle;elbow=vertical;endArrow=classic;html=1;" parent="1" edge="1">
          <mxGeometry width="50" height="50" relative="1" as="geometry">
            <mxPoint x="575" y="130" as="sourcePoint" />
            <mxPoint x="605" y="150" as="targetPoint" />
            <Array as="points">
              <mxPoint x="570" y="150" />
            </Array>
          </mxGeometry>
        </mxCell>
        <mxCell id="QQfPTW1r_rw5d-qssDOF-36" value="" style="shape=image;imageAspect=0;aspect=fixed;verticalLabelPosition=bottom;verticalAlign=top;image=data:image/png,iVBORw0KGgoAAAANSUhEUgAAAMgAAADICAYAAACtWK6eAAAK7UlEQVR4Xu2dO8xlVRmG31VYQIMRiAWFNBZaUNhYmBgmRo3RDlHkMl65CDLeLwiKKIj3CyPIxSsjiAY7jdGQMI0JNYUWNppo5SWx0fIzW9Y4//yZ+c/e+7z/rG+d9ZxkiknW/vb6nvd7Zu0z/+UU8YIABM5JoMAGAhA4NwEEYTogcAABBGE8IIAgzAAE1hHgBFnHjasGIYAggwRNm+sIIMg6blw1CAEEGSRo2lxHAEHWceOqQQggyCBB0+Y6AgiyjhtXDUIAQQYJmjbXEUCQddy4ahACCDJI0LS5jgCCrOPGVYMQ6FqQiLhI0sWSLpF04SCZbWyzlHJy4yIWzCLQlSAR8WJJV0p6vaSrJV06q8vxFt1TSvnceG37O+5CkIi4QNLtko5JusyPYScrIokh1vSCRMRRSR+VdIWh39FKIMmWiacWJCK+K+mWLXsc/XIk2WIC0goSEc9Iet0WvXHpaQJIsnIaUgoSER+S9M2VPXHZ2QkgyYrJSCdIRFwv6cSKXrhkMwEk2czojBWpBImIyyU9J+mlC/tg+XwCSDKflbIJ8nVJH1mwf5auI4AkM7mlESQiXlVPjxfN3DvLtiOAJDP4ZRJk+srv3TP2zBIfASTZwDKTINN7j1f7sqfSTAJIcgCoFIJExPTtI3+ZGejoy6aT1v19VkhyjqnKIshVkp4effJn9n9E0msl3TNz/dxlSHIWUlkEuVPSvXOTHHzdkenb2SPis0hy+JOQRZDHJd1w+O3uxB3+J8jUSUR8RtLnzV1xkuwBmkWQZ+vPeWyT9fTo0cNr6nWb1/8FqZLcJekL2xQ8y7VIUqHsjCCllBS9HDSoETH9sJdVkCrJYTyiIomU4yvpEbH1CTKyIFWST0u6j5PESyDFv7oIsijUMx6x9l4ZEXdI+uKiapsXD32SIMjmAbGtOKxHrH2SfErS/bZNv1BoWEkQxDxJLd6D7L9nRHxS0pfMrQ0pCYKYpyiDIPU9ySckfdnc3nCSIIh5grIIgiSeYBHEw3FWlfPxHuQsj1sfl/SVWRucv2iYkwRB5g/F1itbCFJPko9J+urWDZxZYAhJEMQ8NZkesfb979b0u8W+Zm535yVBEPPEZBWkniTTjzNPP9bsfO20JAjiHJUNtVo9Yu07ST4s6RvmtndWEgQxT0rmE+TU3g7p947tpCQIMqAg9XHrg5K+ZW5/5yRBEPOE9HCC7DlJpt+W/20zgp2SBEHM09GTIPUkQZIDQkOQwQWpkkyfvfKAGcVOnCQIYp6K3k6QPY9bH5B03Iyje0kQxDwRvQpST5LbJH3HjKRrSRDEPA09C1IluVXSg2Ys3UqCIOZJ6F2QKsn7JT1kRtOlJAhinoJdEKRKMn303fQReM5Xd5IgiDP+DbUyfKvJknYj4mZJDy+5ZsbariRBkBmJupb0Jkg9SW6S9IiLQa3TjSQIYk5+Vx6x9vYRETdKetSMqgtJEMSc+i4KUk+S90l6zIwrvSQIYk58VwWpkrxX0vfMyFJLgiDmtHdZkCrJeyR934wtrSQIYk561wWpkrxb0g/M6FJKgiDmlEcQpEryLkk/NONLJwmCmBMeRZAqyTsl/ciMMJUkCGJOdyRBqiRHJf3YjDGNJAhiTnY0Qaok06eDTZ8S5nylkARBnJFuqNXjV9Ln4omI6yWdmLt+xrqTpZTmnxqGIDOSci3ZZUHqSXKdpJ+YeCHIKZB8gM6ikTrnB+gsqnJIiyPiWklPGMojCIKsGqPUgtST5B2SnlzV3emLEARBVo1QekGqJNdI+umqDl+4CEEQZNX4dCFIleTtkp5a1SWCnMbGe5BFI9SNIFWSt0n62aIOOUHOxIUgi8anK0GqJFdL+vmiLjlBOEEWDsxoy3kPwnuQ0WZ+Ub8IgiCLBma0xQiCIKPN/KJ+EQRBFg3MaIsRBEFGm/lF/SIIgiwamNEWIwiCjDbzi/pFEARZNDCjLUYQBBlt5hf1iyAIsmhgRluMIAgy2swv6hdBEGTRwIy2GEEQZLSZX9QvgiDIooEZbTGCIMhoM7+oXwQZVJC7F41Jv4uv3HLrCDKaIFsOTFeXR0RsuWEEQZAtRyjx5QhiDGeUn0k3IktfCkGMESGIEWaSUghiDAJBjDCTlEIQYxAIYoSZpBSCGINAECPMJKUQxBgEghhhJimFIMYgEMQIM0kpBDEGgSBGmElKIYgxCAQxwkxSCkGMQSCIEWaSUghiDAJBjDCTlEIQYxAIYoSZpBSCGINAECPMJKUQxBgEghhhJimFIMYgEMQIM0kpBDEGgSBGmElKIYgxCAQxwkxSCkGMQSCIEWaSUghiDAJBjDCTlEIQYxAIYoSZpBSCGINAECPMJKUQxBgEghhhJimFIMYgEMQIM0kpBDEGgSBGmElKIYgxCAQxwkxSCkGMQSCIEWaSUghiDAJBjDCTlEIQYxAIYoSZpBSCGINAECPMJKUQxBgEghhhJimFIMYgEMQIM0kpBDEGgSBGmElKIYgxCAQxwkxSCkGMQSCIEWaSUghiDAJBjDCTlEIQYxAIYoSZpBSCGINAECPMJKUQxBgEghhhJimFIMYgEMQIM0kpBDEGgSBGmElKIYgxCAQxwkxSCkGMQSCIEWaSUghiDAJBjDCTlEIQYxAIYoSZpBSCGINAECPMJKUQxBgEghhhJimFIMYgEMQIM0kpBDEGgSBGmElKIYgxCAQxwkxSCkGMQSCIEWaSUghiDAJBjDCTlEIQYxAIYoSZpBSCGINAECPMJKUQxBgEghhhJimFIMYgEMQIM0kpBDEGgSBGmElKIYgxCAQxwkxSCkGMQSCIEWaSUghiDAJBjDCTlEIQYxAIYoSZpBSCGINAECPMJKUQxBgEghhhJimFIMYgEMQIM0kpBDEGgSBGmElKIYgxCAQxwkxSCkGMQSCIEWaSUghiDAJBjDCTlEIQYxAIYoSZpBSCGINAECPMJKUQxBgEghhhJimFIMYgEMQIM0kpBDEGgSBGmElKIYgxCIcgko4Yt0Sp7Qk8u2WJk6WU5pmWLZuwXB4Rj0u6wVKMIrtC4EQp5WjrZrIIcqeke1vD4P6pCNxVSrmv9Y6yCHKVpKdbw+D+qQi8tZTyi9Y7yiLIyyT9qTUM7p+KwOWllD+33lEKQSYIEfF7Sa9oDYT7pyDwh1LKKzPsJJMgj0q6MQMU9tCcwGOllJua70JSJkHeIOk3GaCwh+YE3lhK+W3zXWQSpD5mPSzp5gxg2EMzAo+UUm5pdvd9N05zglRBXi7pd5IuzQKIfZxXAn+T9JpSyh/P610PuFkqQaokt0t6IAsg9nFeCRwrpRw/r3fccLN0glRJnpB0bSZQ7OXQCTxZSrnu0O+y8AYpBamS/FLSmxf2w/I+CfyqlPKWjFtPK0iV5FZJD2YEx55sBG4rpTxkq2YulFqQKsk1ku6QdIW5d8q1JfC8pPtLKU+13cbBd08vSJXkAknTm/djki7LDJS9bSTw1/qfMMdLKf/ZuLrxgi4EOcUoIl4i6U17/kx/55WfwD8l/frUn1LK9PcuXl0Jsp9oRFwk6WJJl0i6sAvi42zy35L+LukfpZR/9dp214L0Cp1990MAQfrJip02IIAgDaBzy34IIEg/WbHTBgQQpAF0btkPAQTpJyt22oAAgjSAzi37IYAg/WTFThsQQJAG0LllPwQQpJ+s2GkDAgjSADq37IcAgvSTFTttQABBGkDnlv0QQJB+smKnDQggSAPo3LIfAgjST1bstAGB/wLdsUEjNoppsQAAAABJRU5ErkJggg==;" parent="1" vertex="1">
          <mxGeometry x="605" y="165" width="20" height="20" as="geometry" />
        </mxCell>
        <mxCell id="QQfPTW1r_rw5d-qssDOF-37" value="" style="edgeStyle=elbowEdgeStyle;elbow=vertical;endArrow=classic;html=1;" parent="1" edge="1">
          <mxGeometry width="50" height="50" relative="1" as="geometry">
            <mxPoint x="575" y="155" as="sourcePoint" />
            <mxPoint x="605" y="175.0000000000001" as="targetPoint" />
            <Array as="points">
              <mxPoint x="570" y="175" />
            </Array>
          </mxGeometry>
        </mxCell>
        <mxCell id="QQfPTW1r_rw5d-qssDOF-38" value="" style="shape=image;imageAspect=0;aspect=fixed;verticalLabelPosition=bottom;verticalAlign=top;image=data:image/png,iVBORw0KGgoAAAANSUhEUgAAAMgAAADICAYAAACtWK6eAAAK7UlEQVR4Xu2dO8xlVRmG31VYQIMRiAWFNBZaUNhYmBgmRo3RDlHkMl65CDLeLwiKKIj3CyPIxSsjiAY7jdGQMI0JNYUWNppo5SWx0fIzW9Y4//yZ+c/e+7z/rG+d9ZxkiknW/vb6nvd7Zu0z/+UU8YIABM5JoMAGAhA4NwEEYTogcAABBGE8IIAgzAAE1hHgBFnHjasGIYAggwRNm+sIIMg6blw1CAEEGSRo2lxHAEHWceOqQQggyCBB0+Y6AgiyjhtXDUIAQQYJmjbXEUCQddy4ahACCDJI0LS5jgCCrOPGVYMQ6FqQiLhI0sWSLpF04SCZbWyzlHJy4yIWzCLQlSAR8WJJV0p6vaSrJV06q8vxFt1TSvnceG37O+5CkIi4QNLtko5JusyPYScrIokh1vSCRMRRSR+VdIWh39FKIMmWiacWJCK+K+mWLXsc/XIk2WIC0goSEc9Iet0WvXHpaQJIsnIaUgoSER+S9M2VPXHZ2QkgyYrJSCdIRFwv6cSKXrhkMwEk2czojBWpBImIyyU9J+mlC/tg+XwCSDKflbIJ8nVJH1mwf5auI4AkM7mlESQiXlVPjxfN3DvLtiOAJDP4ZRJk+srv3TP2zBIfASTZwDKTINN7j1f7sqfSTAJIcgCoFIJExPTtI3+ZGejoy6aT1v19VkhyjqnKIshVkp4effJn9n9E0msl3TNz/dxlSHIWUlkEuVPSvXOTHHzdkenb2SPis0hy+JOQRZDHJd1w+O3uxB3+J8jUSUR8RtLnzV1xkuwBmkWQZ+vPeWyT9fTo0cNr6nWb1/8FqZLcJekL2xQ8y7VIUqHsjCCllBS9HDSoETH9sJdVkCrJYTyiIomU4yvpEbH1CTKyIFWST0u6j5PESyDFv7oIsijUMx6x9l4ZEXdI+uKiapsXD32SIMjmAbGtOKxHrH2SfErS/bZNv1BoWEkQxDxJLd6D7L9nRHxS0pfMrQ0pCYKYpyiDIPU9ySckfdnc3nCSIIh5grIIgiSeYBHEw3FWlfPxHuQsj1sfl/SVWRucv2iYkwRB5g/F1itbCFJPko9J+urWDZxZYAhJEMQ8NZkesfb979b0u8W+Zm535yVBEPPEZBWkniTTjzNPP9bsfO20JAjiHJUNtVo9Yu07ST4s6RvmtndWEgQxT0rmE+TU3g7p947tpCQIMqAg9XHrg5K+ZW5/5yRBEPOE9HCC7DlJpt+W/20zgp2SBEHM09GTIPUkQZIDQkOQwQWpkkyfvfKAGcVOnCQIYp6K3k6QPY9bH5B03Iyje0kQxDwRvQpST5LbJH3HjKRrSRDEPA09C1IluVXSg2Ys3UqCIOZJ6F2QKsn7JT1kRtOlJAhinoJdEKRKMn303fQReM5Xd5IgiDP+DbUyfKvJknYj4mZJDy+5ZsbariRBkBmJupb0Jkg9SW6S9IiLQa3TjSQIYk5+Vx6x9vYRETdKetSMqgtJEMSc+i4KUk+S90l6zIwrvSQIYk58VwWpkrxX0vfMyFJLgiDmtHdZkCrJeyR934wtrSQIYk561wWpkrxb0g/M6FJKgiDmlEcQpEryLkk/NONLJwmCmBMeRZAqyTsl/ciMMJUkCGJOdyRBqiRHJf3YjDGNJAhiTnY0Qaok06eDTZ8S5nylkARBnJFuqNXjV9Ln4omI6yWdmLt+xrqTpZTmnxqGIDOSci3ZZUHqSXKdpJ+YeCHIKZB8gM6ikTrnB+gsqnJIiyPiWklPGMojCIKsGqPUgtST5B2SnlzV3emLEARBVo1QekGqJNdI+umqDl+4CEEQZNX4dCFIleTtkp5a1SWCnMbGe5BFI9SNIFWSt0n62aIOOUHOxIUgi8anK0GqJFdL+vmiLjlBOEEWDsxoy3kPwnuQ0WZ+Ub8IgiCLBma0xQiCIKPN/KJ+EQRBFg3MaIsRBEFGm/lF/SIIgiwamNEWIwiCjDbzi/pFEARZNDCjLUYQBBlt5hf1iyAIsmhgRluMIAgy2swv6hdBEGTRwIy2GEEQZLSZX9QvgiDIooEZbTGCIMhoM7+oXwQZVJC7F41Jv4uv3HLrCDKaIFsOTFeXR0RsuWEEQZAtRyjx5QhiDGeUn0k3IktfCkGMESGIEWaSUghiDAJBjDCTlEIQYxAIYoSZpBSCGINAECPMJKUQxBgEghhhJimFIMYgEMQIM0kpBDEGgSBGmElKIYgxCAQxwkxSCkGMQSCIEWaSUghiDAJBjDCTlEIQYxAIYoSZpBSCGINAECPMJKUQxBgEghhhJimFIMYgEMQIM0kpBDEGgSBGmElKIYgxCAQxwkxSCkGMQSCIEWaSUghiDAJBjDCTlEIQYxAIYoSZpBSCGINAECPMJKUQxBgEghhhJimFIMYgEMQIM0kpBDEGgSBGmElKIYgxCAQxwkxSCkGMQSCIEWaSUghiDAJBjDCTlEIQYxAIYoSZpBSCGINAECPMJKUQxBgEghhhJimFIMYgEMQIM0kpBDEGgSBGmElKIYgxCAQxwkxSCkGMQSCIEWaSUghiDAJBjDCTlEIQYxAIYoSZpBSCGINAECPMJKUQxBgEghhhJimFIMYgEMQIM0kpBDEGgSBGmElKIYgxCAQxwkxSCkGMQSCIEWaSUghiDAJBjDCTlEIQYxAIYoSZpBSCGINAECPMJKUQxBgEghhhJimFIMYgEMQIM0kpBDEGgSBGmElKIYgxCAQxwkxSCkGMQSCIEWaSUghiDAJBjDCTlEIQYxAIYoSZpBSCGINAECPMJKUQxBgEghhhJimFIMYgEMQIM0kpBDEGgSBGmElKIYgxCAQxwkxSCkGMQSCIEWaSUghiDAJBjDCTlEIQYxAIYoSZpBSCGINAECPMJKUQxBgEghhhJimFIMYgEMQIM0kpBDEGgSBGmElKIYgxCAQxwkxSCkGMQSCIEWaSUghiDAJBjDCTlEIQYxAIYoSZpBSCGINAECPMJKUQxBgEghhhJimFIMYgEMQIM0kpBDEGgSBGmElKIYgxCIcgko4Yt0Sp7Qk8u2WJk6WU5pmWLZuwXB4Rj0u6wVKMIrtC4EQp5WjrZrIIcqeke1vD4P6pCNxVSrmv9Y6yCHKVpKdbw+D+qQi8tZTyi9Y7yiLIyyT9qTUM7p+KwOWllD+33lEKQSYIEfF7Sa9oDYT7pyDwh1LKKzPsJJMgj0q6MQMU9tCcwGOllJua70JSJkHeIOk3GaCwh+YE3lhK+W3zXWQSpD5mPSzp5gxg2EMzAo+UUm5pdvd9N05zglRBXi7pd5IuzQKIfZxXAn+T9JpSyh/P610PuFkqQaokt0t6IAsg9nFeCRwrpRw/r3fccLN0glRJnpB0bSZQ7OXQCTxZSrnu0O+y8AYpBamS/FLSmxf2w/I+CfyqlPKWjFtPK0iV5FZJD2YEx55sBG4rpTxkq2YulFqQKsk1ku6QdIW5d8q1JfC8pPtLKU+13cbBd08vSJXkAknTm/djki7LDJS9bSTw1/qfMMdLKf/ZuLrxgi4EOcUoIl4i6U17/kx/55WfwD8l/frUn1LK9PcuXl0Jsp9oRFwk6WJJl0i6sAvi42zy35L+LukfpZR/9dp214L0Cp1990MAQfrJip02IIAgDaBzy34IIEg/WbHTBgQQpAF0btkPAQTpJyt22oAAgjSAzi37IYAg/WTFThsQQJAG0LllPwQQpJ+s2GkDAgjSADq37IcAgvSTFTttQABBGkDnlv0QQJB+smKnDQggSAPo3LIfAgjST1bstAGB/wLdsUEjNoppsQAAAABJRU5ErkJggg==;" parent="1" vertex="1">
          <mxGeometry x="605" y="190" width="20" height="20" as="geometry" />
        </mxCell>
        <mxCell id="QQfPTW1r_rw5d-qssDOF-39" value="" style="edgeStyle=elbowEdgeStyle;elbow=vertical;endArrow=classic;html=1;" parent="1" edge="1">
          <mxGeometry width="50" height="50" relative="1" as="geometry">
            <mxPoint x="575" y="180.0000000000001" as="sourcePoint" />
            <mxPoint x="605" y="200.0000000000001" as="targetPoint" />
            <Array as="points">
              <mxPoint x="570" y="200" />
            </Array>
          </mxGeometry>
        </mxCell>
        <mxCell id="QQfPTW1r_rw5d-qssDOF-75" value="" style="shape=image;imageAspect=0;aspect=fixed;verticalLabelPosition=bottom;verticalAlign=top;image=data:image/png,iVBORw0KGgoAAAANSUhEUgAAAMgAAADICAYAAACtWK6eAAALWklEQVR4Xu2dbchlVRmG7wcsCiLMkpKgRJIa/WMJGUagpNKXYIY/kiLDsswRCppIMjJIIxoqGqkEUyjCCGGaCsPU8ocFhvRFmSgTFIiVaYGS/hh4YsnWxsGZZ6919td59vXC+Xevtddz3efyeOacd78mfiAAgcMSMNhAAAKHJ4AgPDsgcAQCCMLTAwIIwnMAAm0EeAVp48aqlRBAkJUUzZhtBBCkjRurVkIAQVZSNGO2EUCQNm6sWgkBBFlJ0YzZRgBB2rixaiUEEGQlRTNmGwEEaePGqpUQQJCVFM2YbQQQpI0bq1ZCAEFWUjRjthFAkDZurFoJAQRZSdGM2UYAQdq4sWolBBBkJUUzZhsBBGnjxqqVEECQlRTNmG0EEKSNG6tWQgBBVlI0Y7YRQJA2bqxaCQEEWUnRjNlGAEHauLFqJQQQZCVFM2YbAQRp48aqlRBAkJUUzZhtBBCkjRurVkIAQVZSNGO2EVisIO5+lKSXHPR4YduIVav+LekvZvZY1SrCaQksShB3P1bSBd3jjBmpP1xEkXR797jLzA7MeB4uPROBRQji7idJulzS+yS9aCYWR7rsQ5L2SdpjZvcu8HwcaSQCswri7q+UtLN7LFGMQ7E/Luna8jCzB0fqhG0XRGA2Qdz9TZJulPS6BfHoe5QHJF1iZnf2XUBuOwnMIoi7v03ST7cT2TOnLu9JzkaSLW8xOP7kgrj7FZKuSYT1NDP7daJ5GOUgApMK4u4flHRDwgaOM7O/J5xr9SNNJoi7v1nSbZKm+Dxj6mLvkPQuM3ty6gtzvXEJTCnIrZLOGXecWXf/tpl9aNYTcPHBCUwiiLt/RNK3Bj/98jZ8p5ndsrxjcaJWAqML0n06/ktJJ7YecovW/dzM3rpF5+Woc/8rlrtf1n24tpYyLjSzm9YybPY5p3gF+ZGkcxtBlrX3SfqdpPJ1jyl+TpV0Wvd9sJbr3WBmF7csZM3yCIwqiLu/YoMn9jvMbLYPE929fGlyj6SXV9b2NzN7deUa4gslMLYgl0r6Ru3sZjbquWrO4+5/lHRyzRpJp5jZ7yvXEF8ggVGfiO5+XfnOUuXcu81sV+Wa0eLdN43vqfz8hvchozUy7cZjC1I+GDyrYqTHzOzFFflJou7+PUkXVlzsSjO7uiJPdKEExhZkv6QTKma/38xeW5GfJOrun5b0xYqL8Ua9AtaSo2ML4pXD32lmZ1auGT3u7uW3G39RcaFFzlFxfqIdAQTp8VRAkB6QkkYQpEexCNIDUtIIgvQoFkF6QEoaQZAexSJID0hJIwjSo1gE6QEpaQRBehTr7jsk1d7u52RuEdQD7sIjCNKjIHcvd3h8tEf04MifJN1cuWYt8ScklbtYPvUws3KDvkX+IEjPWtz9X5Je2jNOrI7Af7t7Fdwy5xdUn+vICNKzSHcv9/C6qGecWDuBcoeYcmO+77ZvMdxKBOnJ0t3L73hc3zNObHMCP+tE+fHmW7XvgCA92bn70d3XTU7puYTYMASuNrMrh9mqfhcEqWDm7udJ2luxhOgwBPaZWWE/+Q+CVCJ3969K+njlMuKbE/iOmX1g823qdkCQOl5Ppd39t+W3BhuWsmQzApea2aS3j0KQxsLc/RFJxzQuZ1k7gfea2ffbl9etRJA6Xs9Ku/sPNrj7yQZXXvXSP5S7zkx1m1cE2fC55u5fkvSpDbdheR2BXWa2u25JWxpB2rgd+kpSbsxdJCl/9+T5A2zJFkcm8NfuVeQfY4NCkAEJd5+VlF/PPb27VVD524vHD3gJtvo/gcvMrPqWUrUAEaSWGPlBCLj7qySVx2cb7/q/18zOH+QwR9gEQcYmzP4hge4uluUfPGp+JrlFFILUVEJ2NAKNfyLjzLH/RiSCjFY5G9cScPfyBcWzK9ZdbGaj/kk/BKlog+i4BNy93Cx8Z8VVRv8iI4JUtEF0XALuXu7jXO7n3PfnJjOruSVs332fySFINTIWjEVgiTfHQJCx2mbfagIIEiPjnrYxo7QJBImrRZCYUdoEgsTVIkjMKG0CQeJqESRmlDaBIHG1CBIzSptAkLhaBIkZpU0gSFwtgsSM0iYQJK4WQWJGaRMIEleLIDGjtAkEiatFkJhR2gSCxNUiSMwobQJB4moRJGaUNoEgcbUIEjNKm0CQuFoEiRmlTSBIXC2CxIzSJhAkrhZBYkZpEwgSV4sgMaO0CQSJq0WQmFHaBILE1SJIzChtAkHiahEkZpQ2gSBxtQgSM0qbQJC4WgSJGaVNIEhcLYLEjNImECSuFkFiRmkTCBJXiyAxo7QJBImrRZCYUdoEgsTVIkjMKG0CQeJqESRmlDaBIHG1CBIzSptAkLhaBIkZpU0gSFwtgsSM0iYQJK4WQWJGaRMIEleLIDGjtAkEiatFkJhR2gSCxNUiSMwobQJB4moRJGaUNoEgcbUIEjNKm0CQuFoEiRmlTSBIXC2CxIzSJhAkrhZBYkZpEwgSV4sgMaO0CQSJq0WQmFHaBILE1SJIzChtAkHiahEkZpQ2gSBxtQgSM0qbQJC4WgSJGaVNIEhcLYLEjNImECSuFkFiRmkTCBJXiyAxo7QJBImrRZCYUdoEgsTVIkjMKG0CQeJqESRmlDaBIHG1CBIzSptAkLhaBIkZpU0gSFwtgsSM0iYQJK4WQWJGaRMIEleLIDGjtAkEiatFkJhR2gSCxNUiSMwobQJB4moRJGaUNoEgcbUIEjNKm0CQuFoEiRmlTSBIXC2CxIzSJhAkrhZBYkZpEwgSV4sgMaO0CQSJq0WQmFHaBILE1SJIzChtAkHiav9sZifFMRIZCbj7RZJurJht9P+gWsVhqqPuvl/SCZULX2Zmj1SuIZ6AgLt/U9JHK0bZekFuk3RWxcAler6Z7a1cQzwBAXe/R9KpFaNsvSDXSbqkYuAS3W9mr6lcQ3zLCbj75ZK+XjnG1guyU9KeyqFL/Coz+3zDOpZsIQF3v0rS5xqO/jUz+0TDut5Lxn4PcqKk+3uf5tnBuyV9QdLdZvZw4x4sWygBdz9G0tslfUzS6Y3HfLeZ/bBxba9lowpSTuDuv5H0+l6nOXzoAUkPbrgHy5dF4IwNj/OkpOPM7D8b7nPE5VMI8hVJo74MjgmIvRdL4Cdmdu7Yp5tCkB2SfiXp6LGHYf9VEbjAzG4ee+LRBen+N+sz3fuJsedh/3UQuMvM3jLFqFMJ8oLuVWTT9yJTMOEayyfwYTO7fopjTiJI9ypyniQ+AJyi1dzX2G1mu6YacTJBOkm+LOmTUw3HddIRmOx/rZ4mN6kgnSS3SjonXXUMNDaBA2b2vLEvcuj+kwvSSXKFpGumHpbrbS2Bf0raYWaPTj3BLIJ0ktR+tXlqNlxvGQTuk/QeM7t3juPMJkgnyRslle9rvX+O4bnmogk8Luna8jCz2b5FMasgT9fj7uU9SRGlfDfnqEXXxuHGJvCQpH3lS65zvWocPOAiBDlIlGO73x8pv0PyBknH8wn82M/H2fcv7yvKd+1u7x7lX6oOzH6q7gCLEuS5oLh7+YoKoizlGTPcOZ4oYszxxrtmhMULUjMMWQgMTQBBhibKfqkIIEiqOhlmaAIIMjRR9ktFAEFS1ckwQxNAkKGJsl8qAgiSqk6GGZoAggxNlP1SEUCQVHUyzNAEEGRoouyXigCCpKqTYYYmgCBDE2W/VAQQJFWdDDM0AQQZmij7pSKAIKnqZJihCSDI0ETZLxUBBElVJ8MMTQBBhibKfqkIIEiqOhlmaAIIMjRR9ktFAEFS1ckwQxNAkKGJsl8qAgiSqk6GGZoAggxNlP1SEUCQVHUyzNAEEGRoouyXigCCpKqTYYYmgCBDE2W/VAQQJFWdDDM0AQQZmij7pSKAIKnqZJihCSDI0ETZLxUBBElVJ8MMTeB/ptTbBTLHhZ8AAAAASUVORK5CYII=;" parent="1" vertex="1">
          <mxGeometry x="380" y="100" width="30" height="30" as="geometry" />
        </mxCell>
        <mxCell id="QQfPTW1r_rw5d-qssDOF-76" value="" style="shape=image;imageAspect=0;aspect=fixed;verticalLabelPosition=bottom;verticalAlign=top;image=data:image/png,iVBORw0KGgoAAAANSUhEUgAAAMgAAADICAYAAACtWK6eAAAK7UlEQVR4Xu2dO8xlVRmG31VYQIMRiAWFNBZaUNhYmBgmRo3RDlHkMl65CDLeLwiKKIj3CyPIxSsjiAY7jdGQMI0JNYUWNppo5SWx0fIzW9Y4//yZ+c/e+7z/rG+d9ZxkiknW/vb6nvd7Zu0z/+UU8YIABM5JoMAGAhA4NwEEYTogcAABBGE8IIAgzAAE1hHgBFnHjasGIYAggwRNm+sIIMg6blw1CAEEGSRo2lxHAEHWceOqQQggyCBB0+Y6AgiyjhtXDUIAQQYJmjbXEUCQddy4ahACCDJI0LS5jgCCrOPGVYMQ6FqQiLhI0sWSLpF04SCZbWyzlHJy4yIWzCLQlSAR8WJJV0p6vaSrJV06q8vxFt1TSvnceG37O+5CkIi4QNLtko5JusyPYScrIokh1vSCRMRRSR+VdIWh39FKIMmWiacWJCK+K+mWLXsc/XIk2WIC0goSEc9Iet0WvXHpaQJIsnIaUgoSER+S9M2VPXHZ2QkgyYrJSCdIRFwv6cSKXrhkMwEk2czojBWpBImIyyU9J+mlC/tg+XwCSDKflbIJ8nVJH1mwf5auI4AkM7mlESQiXlVPjxfN3DvLtiOAJDP4ZRJk+srv3TP2zBIfASTZwDKTINN7j1f7sqfSTAJIcgCoFIJExPTtI3+ZGejoy6aT1v19VkhyjqnKIshVkp4effJn9n9E0msl3TNz/dxlSHIWUlkEuVPSvXOTHHzdkenb2SPis0hy+JOQRZDHJd1w+O3uxB3+J8jUSUR8RtLnzV1xkuwBmkWQZ+vPeWyT9fTo0cNr6nWb1/8FqZLcJekL2xQ8y7VIUqHsjCCllBS9HDSoETH9sJdVkCrJYTyiIomU4yvpEbH1CTKyIFWST0u6j5PESyDFv7oIsijUMx6x9l4ZEXdI+uKiapsXD32SIMjmAbGtOKxHrH2SfErS/bZNv1BoWEkQxDxJLd6D7L9nRHxS0pfMrQ0pCYKYpyiDIPU9ySckfdnc3nCSIIh5grIIgiSeYBHEw3FWlfPxHuQsj1sfl/SVWRucv2iYkwRB5g/F1itbCFJPko9J+urWDZxZYAhJEMQ8NZkesfb979b0u8W+Zm535yVBEPPEZBWkniTTjzNPP9bsfO20JAjiHJUNtVo9Yu07ST4s6RvmtndWEgQxT0rmE+TU3g7p947tpCQIMqAg9XHrg5K+ZW5/5yRBEPOE9HCC7DlJpt+W/20zgp2SBEHM09GTIPUkQZIDQkOQwQWpkkyfvfKAGcVOnCQIYp6K3k6QPY9bH5B03Iyje0kQxDwRvQpST5LbJH3HjKRrSRDEPA09C1IluVXSg2Ys3UqCIOZJ6F2QKsn7JT1kRtOlJAhinoJdEKRKMn303fQReM5Xd5IgiDP+DbUyfKvJknYj4mZJDy+5ZsbariRBkBmJupb0Jkg9SW6S9IiLQa3TjSQIYk5+Vx6x9vYRETdKetSMqgtJEMSc+i4KUk+S90l6zIwrvSQIYk58VwWpkrxX0vfMyFJLgiDmtHdZkCrJeyR934wtrSQIYk561wWpkrxb0g/M6FJKgiDmlEcQpEryLkk/NONLJwmCmBMeRZAqyTsl/ciMMJUkCGJOdyRBqiRHJf3YjDGNJAhiTnY0Qaok06eDTZ8S5nylkARBnJFuqNXjV9Ln4omI6yWdmLt+xrqTpZTmnxqGIDOSci3ZZUHqSXKdpJ+YeCHIKZB8gM6ikTrnB+gsqnJIiyPiWklPGMojCIKsGqPUgtST5B2SnlzV3emLEARBVo1QekGqJNdI+umqDl+4CEEQZNX4dCFIleTtkp5a1SWCnMbGe5BFI9SNIFWSt0n62aIOOUHOxIUgi8anK0GqJFdL+vmiLjlBOEEWDsxoy3kPwnuQ0WZ+Ub8IgiCLBma0xQiCIKPN/KJ+EQRBFg3MaIsRBEFGm/lF/SIIgiwamNEWIwiCjDbzi/pFEARZNDCjLUYQBBlt5hf1iyAIsmhgRluMIAgy2swv6hdBEGTRwIy2GEEQZLSZX9QvgiDIooEZbTGCIMhoM7+oXwQZVJC7F41Jv4uv3HLrCDKaIFsOTFeXR0RsuWEEQZAtRyjx5QhiDGeUn0k3IktfCkGMESGIEWaSUghiDAJBjDCTlEIQYxAIYoSZpBSCGINAECPMJKUQxBgEghhhJimFIMYgEMQIM0kpBDEGgSBGmElKIYgxCAQxwkxSCkGMQSCIEWaSUghiDAJBjDCTlEIQYxAIYoSZpBSCGINAECPMJKUQxBgEghhhJimFIMYgEMQIM0kpBDEGgSBGmElKIYgxCAQxwkxSCkGMQSCIEWaSUghiDAJBjDCTlEIQYxAIYoSZpBSCGINAECPMJKUQxBgEghhhJimFIMYgEMQIM0kpBDEGgSBGmElKIYgxCAQxwkxSCkGMQSCIEWaSUghiDAJBjDCTlEIQYxAIYoSZpBSCGINAECPMJKUQxBgEghhhJimFIMYgEMQIM0kpBDEGgSBGmElKIYgxCAQxwkxSCkGMQSCIEWaSUghiDAJBjDCTlEIQYxAIYoSZpBSCGINAECPMJKUQxBgEghhhJimFIMYgEMQIM0kpBDEGgSBGmElKIYgxCAQxwkxSCkGMQSCIEWaSUghiDAJBjDCTlEIQYxAIYoSZpBSCGINAECPMJKUQxBgEghhhJimFIMYgEMQIM0kpBDEGgSBGmElKIYgxCAQxwkxSCkGMQSCIEWaSUghiDAJBjDCTlEIQYxAIYoSZpBSCGINAECPMJKUQxBgEghhhJimFIMYgEMQIM0kpBDEGgSBGmElKIYgxCAQxwkxSCkGMQSCIEWaSUghiDAJBjDCTlEIQYxAIYoSZpBSCGINAECPMJKUQxBgEghhhJimFIMYgEMQIM0kpBDEGgSBGmElKIYgxCAQxwkxSCkGMQSCIEWaSUghiDAJBjDCTlEIQYxAIYoSZpBSCGINAECPMJKUQxBgEghhhJimFIMYgEMQIM0kpBDEGgSBGmElKIYgxCIcgko4Yt0Sp7Qk8u2WJk6WU5pmWLZuwXB4Rj0u6wVKMIrtC4EQp5WjrZrIIcqeke1vD4P6pCNxVSrmv9Y6yCHKVpKdbw+D+qQi8tZTyi9Y7yiLIyyT9qTUM7p+KwOWllD+33lEKQSYIEfF7Sa9oDYT7pyDwh1LKKzPsJJMgj0q6MQMU9tCcwGOllJua70JSJkHeIOk3GaCwh+YE3lhK+W3zXWQSpD5mPSzp5gxg2EMzAo+UUm5pdvd9N05zglRBXi7pd5IuzQKIfZxXAn+T9JpSyh/P610PuFkqQaokt0t6IAsg9nFeCRwrpRw/r3fccLN0glRJnpB0bSZQ7OXQCTxZSrnu0O+y8AYpBamS/FLSmxf2w/I+CfyqlPKWjFtPK0iV5FZJD2YEx55sBG4rpTxkq2YulFqQKsk1ku6QdIW5d8q1JfC8pPtLKU+13cbBd08vSJXkAknTm/djki7LDJS9bSTw1/qfMMdLKf/ZuLrxgi4EOcUoIl4i6U17/kx/55WfwD8l/frUn1LK9PcuXl0Jsp9oRFwk6WJJl0i6sAvi42zy35L+LukfpZR/9dp214L0Cp1990MAQfrJip02IIAgDaBzy34IIEg/WbHTBgQQpAF0btkPAQTpJyt22oAAgjSAzi37IYAg/WTFThsQQJAG0LllPwQQpJ+s2GkDAgjSADq37IcAgvSTFTttQABBGkDnlv0QQJB+smKnDQggSAPo3LIfAgjST1bstAGB/wLdsUEjNoppsQAAAABJRU5ErkJggg==;" parent="1" vertex="1">
          <mxGeometry x="425" y="140" width="20" height="20" as="geometry" />
        </mxCell>
        <mxCell id="QQfPTW1r_rw5d-qssDOF-77" value="" style="edgeStyle=elbowEdgeStyle;elbow=vertical;endArrow=classic;html=1;" parent="1" edge="1">
          <mxGeometry width="50" height="50" relative="1" as="geometry">
            <mxPoint x="395" y="130" as="sourcePoint" />
            <mxPoint x="425" y="150" as="targetPoint" />
            <Array as="points">
              <mxPoint x="390" y="150" />
            </Array>
          </mxGeometry>
        </mxCell>
        <mxCell id="QQfPTW1r_rw5d-qssDOF-78" value="" style="shape=image;imageAspect=0;aspect=fixed;verticalLabelPosition=bottom;verticalAlign=top;image=data:image/png,iVBORw0KGgoAAAANSUhEUgAAAMgAAADICAYAAACtWK6eAAAK7UlEQVR4Xu2dO8xlVRmG31VYQIMRiAWFNBZaUNhYmBgmRo3RDlHkMl65CDLeLwiKKIj3CyPIxSsjiAY7jdGQMI0JNYUWNppo5SWx0fIzW9Y4//yZ+c/e+7z/rG+d9ZxkiknW/vb6nvd7Zu0z/+UU8YIABM5JoMAGAhA4NwEEYTogcAABBGE8IIAgzAAE1hHgBFnHjasGIYAggwRNm+sIIMg6blw1CAEEGSRo2lxHAEHWceOqQQggyCBB0+Y6AgiyjhtXDUIAQQYJmjbXEUCQddy4ahACCDJI0LS5jgCCrOPGVYMQ6FqQiLhI0sWSLpF04SCZbWyzlHJy4yIWzCLQlSAR8WJJV0p6vaSrJV06q8vxFt1TSvnceG37O+5CkIi4QNLtko5JusyPYScrIokh1vSCRMRRSR+VdIWh39FKIMmWiacWJCK+K+mWLXsc/XIk2WIC0goSEc9Iet0WvXHpaQJIsnIaUgoSER+S9M2VPXHZ2QkgyYrJSCdIRFwv6cSKXrhkMwEk2czojBWpBImIyyU9J+mlC/tg+XwCSDKflbIJ8nVJH1mwf5auI4AkM7mlESQiXlVPjxfN3DvLtiOAJDP4ZRJk+srv3TP2zBIfASTZwDKTINN7j1f7sqfSTAJIcgCoFIJExPTtI3+ZGejoy6aT1v19VkhyjqnKIshVkp4effJn9n9E0msl3TNz/dxlSHIWUlkEuVPSvXOTHHzdkenb2SPis0hy+JOQRZDHJd1w+O3uxB3+J8jUSUR8RtLnzV1xkuwBmkWQZ+vPeWyT9fTo0cNr6nWb1/8FqZLcJekL2xQ8y7VIUqHsjCCllBS9HDSoETH9sJdVkCrJYTyiIomU4yvpEbH1CTKyIFWST0u6j5PESyDFv7oIsijUMx6x9l4ZEXdI+uKiapsXD32SIMjmAbGtOKxHrH2SfErS/bZNv1BoWEkQxDxJLd6D7L9nRHxS0pfMrQ0pCYKYpyiDIPU9ySckfdnc3nCSIIh5grIIgiSeYBHEw3FWlfPxHuQsj1sfl/SVWRucv2iYkwRB5g/F1itbCFJPko9J+urWDZxZYAhJEMQ8NZkesfb979b0u8W+Zm535yVBEPPEZBWkniTTjzNPP9bsfO20JAjiHJUNtVo9Yu07ST4s6RvmtndWEgQxT0rmE+TU3g7p947tpCQIMqAg9XHrg5K+ZW5/5yRBEPOE9HCC7DlJpt+W/20zgp2SBEHM09GTIPUkQZIDQkOQwQWpkkyfvfKAGcVOnCQIYp6K3k6QPY9bH5B03Iyje0kQxDwRvQpST5LbJH3HjKRrSRDEPA09C1IluVXSg2Ys3UqCIOZJ6F2QKsn7JT1kRtOlJAhinoJdEKRKMn303fQReM5Xd5IgiDP+DbUyfKvJknYj4mZJDy+5ZsbariRBkBmJupb0Jkg9SW6S9IiLQa3TjSQIYk5+Vx6x9vYRETdKetSMqgtJEMSc+i4KUk+S90l6zIwrvSQIYk58VwWpkrxX0vfMyFJLgiDmtHdZkCrJeyR934wtrSQIYk561wWpkrxb0g/M6FJKgiDmlEcQpEryLkk/NONLJwmCmBMeRZAqyTsl/ciMMJUkCGJOdyRBqiRHJf3YjDGNJAhiTnY0Qaok06eDTZ8S5nylkARBnJFuqNXjV9Ln4omI6yWdmLt+xrqTpZTmnxqGIDOSci3ZZUHqSXKdpJ+YeCHIKZB8gM6ikTrnB+gsqnJIiyPiWklPGMojCIKsGqPUgtST5B2SnlzV3emLEARBVo1QekGqJNdI+umqDl+4CEEQZNX4dCFIleTtkp5a1SWCnMbGe5BFI9SNIFWSt0n62aIOOUHOxIUgi8anK0GqJFdL+vmiLjlBOEEWDsxoy3kPwnuQ0WZ+Ub8IgiCLBma0xQiCIKPN/KJ+EQRBFg3MaIsRBEFGm/lF/SIIgiwamNEWIwiCjDbzi/pFEARZNDCjLUYQBBlt5hf1iyAIsmhgRluMIAgy2swv6hdBEGTRwIy2GEEQZLSZX9QvgiDIooEZbTGCIMhoM7+oXwQZVJC7F41Jv4uv3HLrCDKaIFsOTFeXR0RsuWEEQZAtRyjx5QhiDGeUn0k3IktfCkGMESGIEWaSUghiDAJBjDCTlEIQYxAIYoSZpBSCGINAECPMJKUQxBgEghhhJimFIMYgEMQIM0kpBDEGgSBGmElKIYgxCAQxwkxSCkGMQSCIEWaSUghiDAJBjDCTlEIQYxAIYoSZpBSCGINAECPMJKUQxBgEghhhJimFIMYgEMQIM0kpBDEGgSBGmElKIYgxCAQxwkxSCkGMQSCIEWaSUghiDAJBjDCTlEIQYxAIYoSZpBSCGINAECPMJKUQxBgEghhhJimFIMYgEMQIM0kpBDEGgSBGmElKIYgxCAQxwkxSCkGMQSCIEWaSUghiDAJBjDCTlEIQYxAIYoSZpBSCGINAECPMJKUQxBgEghhhJimFIMYgEMQIM0kpBDEGgSBGmElKIYgxCAQxwkxSCkGMQSCIEWaSUghiDAJBjDCTlEIQYxAIYoSZpBSCGINAECPMJKUQxBgEghhhJimFIMYgEMQIM0kpBDEGgSBGmElKIYgxCAQxwkxSCkGMQSCIEWaSUghiDAJBjDCTlEIQYxAIYoSZpBSCGINAECPMJKUQxBgEghhhJimFIMYgEMQIM0kpBDEGgSBGmElKIYgxCAQxwkxSCkGMQSCIEWaSUghiDAJBjDCTlEIQYxAIYoSZpBSCGINAECPMJKUQxBgEghhhJimFIMYgEMQIM0kpBDEGgSBGmElKIYgxCAQxwkxSCkGMQSCIEWaSUghiDAJBjDCTlEIQYxAIYoSZpBSCGINAECPMJKUQxBgEghhhJimFIMYgEMQIM0kpBDEGgSBGmElKIYgxCAQxwkxSCkGMQSCIEWaSUghiDAJBjDCTlEIQYxAIYoSZpBSCGINAECPMJKUQxBgEghhhJimFIMYgEMQIM0kpBDEGgSBGmElKIYgxCIcgko4Yt0Sp7Qk8u2WJk6WU5pmWLZuwXB4Rj0u6wVKMIrtC4EQp5WjrZrIIcqeke1vD4P6pCNxVSrmv9Y6yCHKVpKdbw+D+qQi8tZTyi9Y7yiLIyyT9qTUM7p+KwOWllD+33lEKQSYIEfF7Sa9oDYT7pyDwh1LKKzPsJJMgj0q6MQMU9tCcwGOllJua70JSJkHeIOk3GaCwh+YE3lhK+W3zXWQSpD5mPSzp5gxg2EMzAo+UUm5pdvd9N05zglRBXi7pd5IuzQKIfZxXAn+T9JpSyh/P610PuFkqQaokt0t6IAsg9nFeCRwrpRw/r3fccLN0glRJnpB0bSZQ7OXQCTxZSrnu0O+y8AYpBamS/FLSmxf2w/I+CfyqlPKWjFtPK0iV5FZJD2YEx55sBG4rpTxkq2YulFqQKsk1ku6QdIW5d8q1JfC8pPtLKU+13cbBd08vSJXkAknTm/djki7LDJS9bSTw1/qfMMdLKf/ZuLrxgi4EOcUoIl4i6U17/kx/55WfwD8l/frUn1LK9PcuXl0Jsp9oRFwk6WJJl0i6sAvi42zy35L+LukfpZR/9dp214L0Cp1990MAQfrJip02IIAgDaBzy34IIEg/WbHTBgQQpAF0btkPAQTpJyt22oAAgjSAzi37IYAg/WTFThsQQJAG0LllPwQQpJ+s2GkDAgjSADq37IcAgvSTFTttQABBGkDnlv0QQJB+smKnDQggSAPo3LIfAgjST1bstAGB/wLdsUEjNoppsQAAAABJRU5ErkJggg==;" parent="1" vertex="1">
          <mxGeometry x="425" y="165" width="20" height="20" as="geometry" />
        </mxCell>
        <mxCell id="QQfPTW1r_rw5d-qssDOF-79" value="" style="edgeStyle=elbowEdgeStyle;elbow=vertical;endArrow=classic;html=1;" parent="1" edge="1">
          <mxGeometry width="50" height="50" relative="1" as="geometry">
            <mxPoint x="395" y="155" as="sourcePoint" />
            <mxPoint x="425" y="175.0000000000001" as="targetPoint" />
            <Array as="points">
              <mxPoint x="390" y="175" />
            </Array>
          </mxGeometry>
        </mxCell>
        <mxCell id="j0Ng3-Z6JoeE1EVEpibu-7" value="" style="edgeStyle=orthogonalEdgeStyle;rounded=0;orthogonalLoop=1;jettySize=auto;html=1;" edge="1" parent="1" source="j0Ng3-Z6JoeE1EVEpibu-2" target="j0Ng3-Z6JoeE1EVEpibu-6">
          <mxGeometry relative="1" as="geometry" />
        </mxCell>
        <mxCell id="j0Ng3-Z6JoeE1EVEpibu-2" value="" style="ellipse;whiteSpace=wrap;html=1;aspect=fixed;" vertex="1" parent="1">
          <mxGeometry x="70" y="420" width="10" height="10" as="geometry" />
        </mxCell>
        <mxCell id="j0Ng3-Z6JoeE1EVEpibu-9" value="" style="edgeStyle=orthogonalEdgeStyle;rounded=0;orthogonalLoop=1;jettySize=auto;html=1;" edge="1" parent="1" source="j0Ng3-Z6JoeE1EVEpibu-6" target="j0Ng3-Z6JoeE1EVEpibu-8">
          <mxGeometry relative="1" as="geometry" />
        </mxCell>
        <mxCell id="j0Ng3-Z6JoeE1EVEpibu-6" value="" style="ellipse;whiteSpace=wrap;html=1;aspect=fixed;" vertex="1" parent="1">
          <mxGeometry x="160" y="420" width="10" height="10" as="geometry" />
        </mxCell>
        <mxCell id="j0Ng3-Z6JoeE1EVEpibu-21" value="" style="edgeStyle=orthogonalEdgeStyle;rounded=0;orthogonalLoop=1;jettySize=auto;html=1;" edge="1" parent="1" source="j0Ng3-Z6JoeE1EVEpibu-8" target="j0Ng3-Z6JoeE1EVEpibu-20">
          <mxGeometry relative="1" as="geometry" />
        </mxCell>
        <mxCell id="j0Ng3-Z6JoeE1EVEpibu-8" value="" style="ellipse;whiteSpace=wrap;html=1;aspect=fixed;" vertex="1" parent="1">
          <mxGeometry x="250" y="420" width="10" height="10" as="geometry" />
        </mxCell>
        <mxCell id="j0Ng3-Z6JoeE1EVEpibu-10" value="" style="endArrow=classic;html=1;" edge="1" parent="1">
          <mxGeometry width="50" height="50" relative="1" as="geometry">
            <mxPoint x="355" y="390" as="sourcePoint" />
            <mxPoint x="354.76" y="420" as="targetPoint" />
          </mxGeometry>
        </mxCell>
        <mxCell id="j0Ng3-Z6JoeE1EVEpibu-11" value="master" style="text;html=1;align=center;verticalAlign=middle;resizable=0;points=[];autosize=1;" vertex="1" parent="1">
          <mxGeometry x="330" y="370" width="50" height="20" as="geometry" />
        </mxCell>
        <mxCell id="j0Ng3-Z6JoeE1EVEpibu-12" value="" style="endArrow=classic;html=1;exitX=0.568;exitY=1.057;exitDx=0;exitDy=0;exitPerimeter=0;" edge="1" parent="1" source="j0Ng3-Z6JoeE1EVEpibu-13" target="j0Ng3-Z6JoeE1EVEpibu-11">
          <mxGeometry width="50" height="50" relative="1" as="geometry">
            <mxPoint x="311.03999999999996" y="347.28" as="sourcePoint" />
            <mxPoint x="350" y="300" as="targetPoint" />
          </mxGeometry>
        </mxCell>
        <mxCell id="j0Ng3-Z6JoeE1EVEpibu-13" value="HEAD" style="text;html=1;align=center;verticalAlign=middle;resizable=0;points=[];autosize=1;" vertex="1" parent="1">
          <mxGeometry x="286.03999999999996" y="327.28" width="50" height="20" as="geometry" />
        </mxCell>
        <mxCell id="j0Ng3-Z6JoeE1EVEpibu-14" value="" style="endArrow=classic;html=1;" edge="1" parent="1" source="j0Ng3-Z6JoeE1EVEpibu-15">
          <mxGeometry width="50" height="50" relative="1" as="geometry">
            <mxPoint x="305" y="520" as="sourcePoint" />
            <mxPoint x="305" y="470" as="targetPoint" />
          </mxGeometry>
        </mxCell>
        <mxCell id="j0Ng3-Z6JoeE1EVEpibu-15" value="dev" style="text;html=1;align=center;verticalAlign=middle;resizable=0;points=[];autosize=1;" vertex="1" parent="1">
          <mxGeometry x="290" y="500" width="30" height="20" as="geometry" />
        </mxCell>
        <mxCell id="j0Ng3-Z6JoeE1EVEpibu-16" value="" style="ellipse;whiteSpace=wrap;html=1;aspect=fixed;" vertex="1" parent="1">
          <mxGeometry x="300" y="460" width="10" height="10" as="geometry" />
        </mxCell>
        <mxCell id="j0Ng3-Z6JoeE1EVEpibu-18" value="" style="endArrow=classic;html=1;exitX=1;exitY=0.5;exitDx=0;exitDy=0;entryX=0;entryY=0;entryDx=0;entryDy=0;" edge="1" parent="1" source="j0Ng3-Z6JoeE1EVEpibu-8" target="j0Ng3-Z6JoeE1EVEpibu-16">
          <mxGeometry width="50" height="50" relative="1" as="geometry">
            <mxPoint x="270" y="510" as="sourcePoint" />
            <mxPoint x="320" y="460" as="targetPoint" />
          </mxGeometry>
        </mxCell>
        <mxCell id="j0Ng3-Z6JoeE1EVEpibu-20" value="" style="ellipse;whiteSpace=wrap;html=1;aspect=fixed;" vertex="1" parent="1">
          <mxGeometry x="350" y="420" width="10" height="10" as="geometry" />
        </mxCell>
        <mxCell id="j0Ng3-Z6JoeE1EVEpibu-24" value="" style="endArrow=classic;html=1;exitX=1;exitY=0.5;exitDx=0;exitDy=0;entryX=0.11;entryY=1.176;entryDx=0;entryDy=0;entryPerimeter=0;" edge="1" parent="1" source="j0Ng3-Z6JoeE1EVEpibu-16" target="j0Ng3-Z6JoeE1EVEpibu-20">
          <mxGeometry width="50" height="50" relative="1" as="geometry">
            <mxPoint x="270" y="510" as="sourcePoint" />
            <mxPoint x="445" y="430" as="targetPoint" />
          </mxGeometry>
        </mxCell>
      </root>
    </mxGraphModel>
  </diagram>
</mxfile>
